<svg xmlns="http://www.w3.org/2000/svg" version="1.1" xmlns:xlink="http://www.w3.org/1999/xlink" xmlns:svgjs="http://svgjs.dev/svgjs" width="1440" height="560" preserveAspectRatio="none" viewBox="0 0 1440 560">
    <g mask="url(&quot;#SvgjsMask1029&quot;)" fill="none">
        <path d="M114.28 513.77L179.24 551.27L179.24 626.27L114.28 663.77L49.33 626.27L49.33 551.27zM244.19 63.77L309.14 101.27L309.14 176.27L244.19 213.77L179.24 176.27L179.24 101.27zM179.24 401.27L244.19 438.77L244.19 513.77L179.24 551.27L114.28 513.77L114.28 438.77zM374.1 288.77L439.05 326.27L439.05 401.27L374.1 438.77L309.14 401.27L309.14 326.27zM504.01 63.77L568.96 101.27L568.96 176.27L504.01 213.77L439.05 176.27L439.05 101.27zM504.01 513.77L568.96 551.27L568.96 626.27L504.01 663.77L439.05 626.27L439.05 551.27zM568.96 -48.73L633.91 -11.23L633.91 63.77L568.96 101.27L504.01 63.77L504.01 -11.23zM698.87 401.27L763.82 438.77L763.82 513.77L698.87 551.27L633.91 513.77L633.91 438.77zM763.82 513.77L828.78 551.27L828.78 626.27L763.82 663.77L698.87 626.27L698.87 551.27zM958.68 -48.73L1023.64 -11.23L1023.64 63.77L958.68 101.27L893.73 63.77L893.73 -11.23zM1023.64 63.77L1088.59 101.27L1088.59 176.27L1023.64 213.77L958.68 176.27L958.68 101.27zM1023.64 513.77L1088.59 551.27L1088.59 626.27L1023.64 663.77L958.68 626.27L958.68 551.27zM1088.59 -48.73L1153.54 -11.23L1153.54 63.77L1088.59 101.27L1023.64 63.77L1023.64 -11.23zM1153.54 513.77L1218.5 551.27L1218.5 626.27L1153.54 663.77L1088.59 626.27L1088.59 551.27zM1348.4 176.27L1413.36 213.77L1413.36 288.77L1348.4 326.27L1283.45 288.77L1283.45 213.77zM1478.31 401.27L1543.27 438.77L1543.27 513.77L1478.31 551.27L1413.36 513.77L1413.36 438.77z" stroke="rgba(175, 255, 195, 0.06)" stroke-width="2"></path>
        <path d="M106.78 513.77 a7.5 7.5 0 1 0 15 0 a7.5 7.5 0 1 0 -15 0zM171.74 551.27 a7.5 7.5 0 1 0 15 0 a7.5 7.5 0 1 0 -15 0zM171.74 626.27 a7.5 7.5 0 1 0 15 0 a7.5 7.5 0 1 0 -15 0zM106.78 663.77 a7.5 7.5 0 1 0 15 0 a7.5 7.5 0 1 0 -15 0zM41.83 626.27 a7.5 7.5 0 1 0 15 0 a7.5 7.5 0 1 0 -15 0zM41.83 551.27 a7.5 7.5 0 1 0 15 0 a7.5 7.5 0 1 0 -15 0zM236.69 63.77 a7.5 7.5 0 1 0 15 0 a7.5 7.5 0 1 0 -15 0zM301.64 101.27 a7.5 7.5 0 1 0 15 0 a7.5 7.5 0 1 0 -15 0zM301.64 176.27 a7.5 7.5 0 1 0 15 0 a7.5 7.5 0 1 0 -15 0zM236.69 213.77 a7.5 7.5 0 1 0 15 0 a7.5 7.5 0 1 0 -15 0zM171.74 176.27 a7.5 7.5 0 1 0 15 0 a7.5 7.5 0 1 0 -15 0zM171.74 101.27 a7.5 7.5 0 1 0 15 0 a7.5 7.5 0 1 0 -15 0zM171.74 401.27 a7.5 7.5 0 1 0 15 0 a7.5 7.5 0 1 0 -15 0zM236.69 438.77 a7.5 7.5 0 1 0 15 0 a7.5 7.5 0 1 0 -15 0zM236.69 513.77 a7.5 7.5 0 1 0 15 0 a7.5 7.5 0 1 0 -15 0zM106.78 438.77 a7.5 7.5 0 1 0 15 0 a7.5 7.5 0 1 0 -15 0zM366.6 288.77 a7.5 7.5 0 1 0 15 0 a7.5 7.5 0 1 0 -15 0zM431.55 326.27 a7.5 7.5 0 1 0 15 0 a7.5 7.5 0 1 0 -15 0zM431.55 401.27 a7.5 7.5 0 1 0 15 0 a7.5 7.5 0 1 0 -15 0zM366.6 438.77 a7.5 7.5 0 1 0 15 0 a7.5 7.5 0 1 0 -15 0zM301.64 401.27 a7.5 7.5 0 1 0 15 0 a7.5 7.5 0 1 0 -15 0zM301.64 326.27 a7.5 7.5 0 1 0 15 0 a7.5 7.5 0 1 0 -15 0zM496.51 63.77 a7.5 7.5 0 1 0 15 0 a7.5 7.5 0 1 0 -15 0zM561.46 101.27 a7.5 7.5 0 1 0 15 0 a7.5 7.5 0 1 0 -15 0zM561.46 176.27 a7.5 7.5 0 1 0 15 0 a7.5 7.5 0 1 0 -15 0zM496.51 213.77 a7.5 7.5 0 1 0 15 0 a7.5 7.5 0 1 0 -15 0zM431.55 176.27 a7.5 7.5 0 1 0 15 0 a7.5 7.5 0 1 0 -15 0zM431.55 101.27 a7.5 7.5 0 1 0 15 0 a7.5 7.5 0 1 0 -15 0zM496.51 513.77 a7.5 7.5 0 1 0 15 0 a7.5 7.5 0 1 0 -15 0zM561.46 551.27 a7.5 7.5 0 1 0 15 0 a7.5 7.5 0 1 0 -15 0zM561.46 626.27 a7.5 7.5 0 1 0 15 0 a7.5 7.5 0 1 0 -15 0zM496.51 663.77 a7.5 7.5 0 1 0 15 0 a7.5 7.5 0 1 0 -15 0zM431.55 626.27 a7.5 7.5 0 1 0 15 0 a7.5 7.5 0 1 0 -15 0zM431.55 551.27 a7.5 7.5 0 1 0 15 0 a7.5 7.5 0 1 0 -15 0zM561.46 -48.73 a7.5 7.5 0 1 0 15 0 a7.5 7.5 0 1 0 -15 0zM626.41 -11.23 a7.5 7.5 0 1 0 15 0 a7.5 7.5 0 1 0 -15 0zM626.41 63.77 a7.5 7.5 0 1 0 15 0 a7.5 7.5 0 1 0 -15 0zM496.51 -11.23 a7.5 7.5 0 1 0 15 0 a7.5 7.5 0 1 0 -15 0zM691.37 401.27 a7.5 7.5 0 1 0 15 0 a7.5 7.5 0 1 0 -15 0zM756.32 438.77 a7.5 7.5 0 1 0 15 0 a7.5 7.5 0 1 0 -15 0zM756.32 513.77 a7.5 7.5 0 1 0 15 0 a7.5 7.5 0 1 0 -15 0zM691.37 551.27 a7.5 7.5 0 1 0 15 0 a7.5 7.5 0 1 0 -15 0zM626.41 513.77 a7.5 7.5 0 1 0 15 0 a7.5 7.5 0 1 0 -15 0zM626.41 438.77 a7.5 7.5 0 1 0 15 0 a7.5 7.5 0 1 0 -15 0zM821.28 551.27 a7.5 7.5 0 1 0 15 0 a7.5 7.5 0 1 0 -15 0zM821.28 626.27 a7.5 7.5 0 1 0 15 0 a7.5 7.5 0 1 0 -15 0zM756.32 663.77 a7.5 7.5 0 1 0 15 0 a7.5 7.5 0 1 0 -15 0zM691.37 626.27 a7.5 7.5 0 1 0 15 0 a7.5 7.5 0 1 0 -15 0zM951.18 -48.73 a7.5 7.5 0 1 0 15 0 a7.5 7.5 0 1 0 -15 0zM1016.14 -11.23 a7.5 7.5 0 1 0 15 0 a7.5 7.5 0 1 0 -15 0zM1016.14 63.77 a7.5 7.5 0 1 0 15 0 a7.5 7.5 0 1 0 -15 0zM951.18 101.27 a7.5 7.5 0 1 0 15 0 a7.5 7.5 0 1 0 -15 0zM886.23 63.77 a7.5 7.5 0 1 0 15 0 a7.5 7.5 0 1 0 -15 0zM886.23 -11.23 a7.5 7.5 0 1 0 15 0 a7.5 7.5 0 1 0 -15 0zM1081.09 101.27 a7.5 7.5 0 1 0 15 0 a7.5 7.5 0 1 0 -15 0zM1081.09 176.27 a7.5 7.5 0 1 0 15 0 a7.5 7.5 0 1 0 -15 0zM1016.14 213.77 a7.5 7.5 0 1 0 15 0 a7.5 7.5 0 1 0 -15 0zM951.18 176.27 a7.5 7.5 0 1 0 15 0 a7.5 7.5 0 1 0 -15 0zM1016.14 513.77 a7.5 7.5 0 1 0 15 0 a7.5 7.5 0 1 0 -15 0zM1081.09 551.27 a7.5 7.5 0 1 0 15 0 a7.5 7.5 0 1 0 -15 0zM1081.09 626.27 a7.5 7.5 0 1 0 15 0 a7.5 7.5 0 1 0 -15 0zM1016.14 663.77 a7.5 7.5 0 1 0 15 0 a7.5 7.5 0 1 0 -15 0zM951.18 626.27 a7.5 7.5 0 1 0 15 0 a7.5 7.5 0 1 0 -15 0zM951.18 551.27 a7.5 7.5 0 1 0 15 0 a7.5 7.5 0 1 0 -15 0zM1081.09 -48.73 a7.5 7.5 0 1 0 15 0 a7.5 7.5 0 1 0 -15 0zM1146.04 -11.23 a7.5 7.5 0 1 0 15 0 a7.5 7.5 0 1 0 -15 0zM1146.04 63.77 a7.5 7.5 0 1 0 15 0 a7.5 7.5 0 1 0 -15 0zM1146.04 513.77 a7.5 7.5 0 1 0 15 0 a7.5 7.5 0 1 0 -15 0zM1211 551.27 a7.5 7.5 0 1 0 15 0 a7.5 7.5 0 1 0 -15 0zM1211 626.27 a7.5 7.5 0 1 0 15 0 a7.5 7.5 0 1 0 -15 0zM1146.04 663.77 a7.5 7.5 0 1 0 15 0 a7.5 7.5 0 1 0 -15 0zM1340.9 176.27 a7.5 7.5 0 1 0 15 0 a7.5 7.5 0 1 0 -15 0zM1405.86 213.77 a7.5 7.5 0 1 0 15 0 a7.5 7.5 0 1 0 -15 0zM1405.86 288.77 a7.5 7.5 0 1 0 15 0 a7.5 7.5 0 1 0 -15 0zM1340.9 326.27 a7.5 7.5 0 1 0 15 0 a7.5 7.5 0 1 0 -15 0zM1275.95 288.77 a7.5 7.5 0 1 0 15 0 a7.5 7.5 0 1 0 -15 0zM1275.95 213.77 a7.5 7.5 0 1 0 15 0 a7.5 7.5 0 1 0 -15 0zM1470.81 401.27 a7.5 7.5 0 1 0 15 0 a7.5 7.5 0 1 0 -15 0zM1535.77 438.77 a7.5 7.5 0 1 0 15 0 a7.5 7.5 0 1 0 -15 0zM1535.77 513.77 a7.5 7.5 0 1 0 15 0 a7.5 7.5 0 1 0 -15 0zM1470.81 551.27 a7.5 7.5 0 1 0 15 0 a7.5 7.5 0 1 0 -15 0zM1405.86 513.77 a7.5 7.5 0 1 0 15 0 a7.5 7.5 0 1 0 -15 0zM1405.86 438.77 a7.5 7.5 0 1 0 15 0 a7.5 7.5 0 1 0 -15 0z" fill="rgba(175, 255, 195, 0.06)"></path>
        <path d="M6.59 -41.9L49.89 -16.9L49.89 33.1L6.59 58.1L-36.71 33.1L-36.71 -16.9zM6.59 258.1L49.89 283.1L49.89 333.1L6.59 358.1L-36.71 333.1L-36.71 283.1zM93.2 258.1L136.5 283.1L136.5 333.1L93.2 358.1L49.89 333.1L49.89 283.1zM179.8 108.1L223.1 133.1L223.1 183.1L179.8 208.1L136.5 183.1L136.5 133.1zM223.1 183.1L266.4 208.1L266.4 258.1L223.1 283.1L179.8 258.1L179.8 208.1zM179.8 408.1L223.1 433.1L223.1 483.1L179.8 508.1L136.5 483.1L136.5 433.1zM266.4 258.1L309.71 283.1L309.71 333.1L266.4 358.1L223.1 333.1L223.1 283.1zM309.71 483.1L353.01 508.1L353.01 558.1L309.71 583.1L266.4 558.1L266.4 508.1zM353.01 -41.9L396.31 -16.9L396.31 33.1L353.01 58.1L309.71 33.1L309.71 -16.9zM396.31 183.1L439.62 208.1L439.62 258.1L396.31 283.1L353.01 258.1L353.01 208.1zM353.01 258.1L396.31 283.1L396.31 333.1L353.01 358.1L309.71 333.1L309.71 283.1zM353.01 408.1L396.31 433.1L396.31 483.1L353.01 508.1L309.71 483.1L309.71 433.1zM482.92 483.1L526.22 508.1L526.22 558.1L482.92 583.1L439.62 558.1L439.62 508.1zM569.52 183.1L612.83 208.1L612.83 258.1L569.52 283.1L526.22 258.1L526.22 208.1zM526.22 258.1L569.52 283.1L569.52 333.1L526.22 358.1L482.92 333.1L482.92 283.1zM612.83 -41.9L656.13 -16.9L656.13 33.1L612.83 58.1L569.52 33.1L569.52 -16.9zM656.13 333.1L699.43 358.1L699.43 408.1L656.13 433.1L612.83 408.1L612.83 358.1zM656.13 483.1L699.43 508.1L699.43 558.1L656.13 583.1L612.83 558.1L612.83 508.1zM699.43 108.1L742.73 133.1L742.73 183.1L699.43 208.1L656.13 183.1L656.13 133.1zM742.73 183.1L786.04 208.1L786.04 258.1L742.73 283.1L699.43 258.1L699.43 208.1zM786.04 -41.9L829.34 -16.9L829.34 33.1L786.04 58.1L742.73 33.1L742.73 -16.9zM829.34 183.1L872.64 208.1L872.64 258.1L829.34 283.1L786.04 258.1L786.04 208.1zM872.64 258.1L915.94 283.1L915.94 333.1L872.64 358.1L829.34 333.1L829.34 283.1zM959.25 -41.9L1002.55 -16.9L1002.55 33.1L959.25 58.1L915.94 33.1L915.94 -16.9zM1002.55 33.1L1045.85 58.1L1045.85 108.1L1002.55 133.1L959.25 108.1L959.25 58.1zM1002.55 183.1L1045.85 208.1L1045.85 258.1L1002.55 283.1L959.25 258.1L959.25 208.1zM959.25 258.1L1002.55 283.1L1002.55 333.1L959.25 358.1L915.94 333.1L915.94 283.1zM1002.55 333.1L1045.85 358.1L1045.85 408.1L1002.55 433.1L959.25 408.1L959.25 358.1zM1089.15 33.1L1132.45 58.1L1132.45 108.1L1089.15 133.1L1045.85 108.1L1045.85 58.1zM1045.85 108.1L1089.15 133.1L1089.15 183.1L1045.85 208.1L1002.55 183.1L1002.55 133.1zM1045.85 258.1L1089.15 283.1L1089.15 333.1L1045.85 358.1L1002.55 333.1L1002.55 283.1zM1132.45 -41.9L1175.76 -16.9L1175.76 33.1L1132.45 58.1L1089.15 33.1L1089.15 -16.9zM1175.76 183.1L1219.06 208.1L1219.06 258.1L1175.76 283.1L1132.45 258.1L1132.45 208.1zM1132.45 258.1L1175.76 283.1L1175.76 333.1L1132.45 358.1L1089.15 333.1L1089.15 283.1zM1132.45 408.1L1175.76 433.1L1175.76 483.1L1132.45 508.1L1089.15 483.1L1089.15 433.1zM1262.36 333.1L1305.66 358.1L1305.66 408.1L1262.36 433.1L1219.06 408.1L1219.06 358.1zM1305.66 108.1L1348.97 133.1L1348.97 183.1L1305.66 208.1L1262.36 183.1L1262.36 133.1zM1392.27 108.1L1435.57 133.1L1435.57 183.1L1392.27 208.1L1348.97 183.1L1348.97 133.1zM1435.57 333.1L1478.88 358.1L1478.88 408.1L1435.57 433.1L1392.27 408.1L1392.27 358.1z" stroke="rgba(147, 255, 174, 0.05)" stroke-width="2"></path>
    </g>
    <defs>
        <mask id="SvgjsMask1029">
            <rect width="1440" height="560" fill="#ffffff"></rect>
        </mask>
    </defs>
</svg>