<svg xmlns="http://www.w3.org/2000/svg" version="1.1" xmlns:xlink="http://www.w3.org/1999/xlink" width="512" height="512" x="0" y="0" viewBox="0 0 60 60" style="enable-background:new 0 0 512 512" xml:space="preserve" class=""><g><g fill="none" fill-rule="nonzero"><path fill="#ffdf00" d="M48 17H12a6 6 0 0 0-6 6v22a6 6 0 0 0 6 6 1 1 0 0 1 1 1v7l11.5-7.664A2 2 0 0 1 25.606 51H48a6 6 0 0 0 6-6V23a6 6 0 0 0-6-6z" opacity="1" data-original="#ffdf00" class=""></path><path fill="#fec108" d="M48 17h-3a6 6 0 0 1 6 6v22a6 6 0 0 1-6 6h3a6 6 0 0 0 6-6V23a6 6 0 0 0-6-6z" opacity="1" data-original="#fec108"></path><path fill="#7f8e94" d="M4 28h2v12H4a3 3 0 0 1-3-3v-6a3 3 0 0 1 3-3zM54 28h2a3 3 0 0 1 3 3v6a3 3 0 0 1-3 3h-2z" opacity="1" data-original="#7f8e94"></path><path fill="#545c60" d="M56 28h-2v.184A2.99 2.99 0 0 1 56 31v6a2.99 2.99 0 0 1-2 2.816V40h2a3 3 0 0 0 3-3v-6a3 3 0 0 0-3-3z" opacity="1" data-original="#545c60"></path><circle cx="30" cy="5" r="4" fill="#02a9f4" opacity="1" data-original="#02a9f4"></circle><path fill="#0377bc" d="M30 1a3.984 3.984 0 0 0-1.5.3 3.992 3.992 0 0 1 0 7.406A4 4 0 1 0 30 1z" opacity="1" data-original="#0377bc"></path><circle cx="18" cy="31" r="4" fill="#00bcd4" opacity="1" data-original="#00bcd4"></circle><circle cx="42" cy="31" r="4" fill="#00bcd4" opacity="1" data-original="#00bcd4"></circle><g fill="#000"><path d="M56 27h-1v-4a7.008 7.008 0 0 0-7-7H31V9.9a5 5 0 1 0-2 0V16H12a7.008 7.008 0 0 0-7 7v4H4a4 4 0 0 0-4 4v6a4 4 0 0 0 4 4h1v4a7.008 7.008 0 0 0 7 7v7a1 1 0 0 0 1.555.832l11.5-7.665a1 1 0 0 1 .55-.167H48a7.008 7.008 0 0 0 7-7v-4h1a4 4 0 0 0 4-4v-6a4 4 0 0 0-4-4zM27 5a3 3 0 1 1 6 0 3 3 0 0 1-6 0zM4 39a2 2 0 0 1-2-2v-6a2 2 0 0 1 2-2h1v10zm49 6a5.006 5.006 0 0 1-5 5H25.605a2.984 2.984 0 0 0-1.664.5L14 57.131V52a2 2 0 0 0-2-2 5.006 5.006 0 0 1-5-5V23a5.006 5.006 0 0 1 5-5h36a5.006 5.006 0 0 1 5 5zm5-8a2 2 0 0 1-2 2h-1V29h1a2 2 0 0 1 2 2z" fill="#000000" opacity="1" data-original="#000000" class=""></path><path d="M18 26a5 5 0 1 0 0 10 5 5 0 0 0 0-10zm0 8a3 3 0 1 1 0-6 3 3 0 0 1 0 6zM42 26a5 5 0 1 0 0 10 5 5 0 0 0 0-10zm0 8a3 3 0 1 1 0-6 3 3 0 0 1 0 6zM35.54 38.169a1.009 1.009 0 0 0-1.379.287C34.119 38.519 33.081 40 30 40c-3.054 0-4.1-1.456-4.16-1.542a1 1 0 0 0-1.688 1.072c.063.1 1.593 2.47 5.848 2.47s5.785-2.369 5.848-2.47a.993.993 0 0 0-.308-1.361z" fill="#000000" opacity="1" data-original="#000000" class=""></path></g></g></g></svg>