<svg xmlns="http://www.w3.org/2000/svg" version="1.1" xmlns:xlink="http://www.w3.org/1999/xlink" width="512" height="512" x="0" y="0" viewBox="0 0 409.6 409.6" style="enable-background:new 0 0 512 512" xml:space="preserve" fill-rule="evenodd" class=""><g><linearGradient id="a"><stop offset="0" stop-color="#df9000"></stop><stop offset=".73" stop-color="#7f5200"></stop><stop offset=".99" stop-color="#3f2600"></stop><stop offset="1" stop-color="#3f2600"></stop></linearGradient><linearGradient id="b"><stop offset="0" stop-color="#df9000"></stop><stop offset=".792" stop-color="#7f5200"></stop><stop offset=".99" stop-color="#3f2600"></stop><stop offset="1" stop-color="#3f2600"></stop></linearGradient><linearGradient id="c"><stop offset="0" stop-color="#fff"></stop><stop offset="1"></stop></linearGradient><path fill="#ffb60e" d="M49.32 179.2 219.464 9.082c12.083-12.117 31.777-12.083 43.86 0l137.173 137.216c8.874 8.908 11.229 21.879 7.065 32.904z" opacity="1" data-original="#ffb60e" class=""></path><path fill="#4f4f4f" d="M121.849 179.2 277.624 23.452l36.18 36.181-119.597 119.569z" opacity="1" data-original="#4f4f4f" class=""></path><path fill="#0c93c7" d="M0 184.56v194.013c0 17.1 13.891 31.027 30.991 31.027H378.62c17.1 0 30.99-13.926 30.99-31.027V184.56c0-17.1-13.89-31.027-30.99-31.027H30.99C13.891 153.533 0 167.459 0 184.56z" opacity="1" data-original="#0c93c7" class=""></path><g fill="#fff"><path d="M345.614 179.133c21.195 0 38.397 17.203 38.397 38.4s-17.202 38.4-38.397 38.4c-21.196 0-38.398-17.204-38.398-38.4s17.202-38.4 38.398-38.4zM49.9 207.873c1.911 0 3.754-.342 5.53-.99 1.774-.717 3.48-1.81 5.085-3.345l2.116 2.594c-1.604 1.57-3.55 2.765-5.87 3.686-2.287.888-4.745 1.332-7.305 1.332-2.662 0-5.085-.342-7.201-1.059-2.15-.682-3.994-1.706-5.496-3.072-1.501-1.365-2.696-3.071-3.515-5.051-.82-2.014-1.229-4.335-1.229-6.963 0-2.595.41-4.916 1.229-6.93.819-1.98 1.945-3.652 3.413-5.017a14.534 14.534 0 0 1 5.393-3.106c2.116-.717 4.437-1.058 6.963-1.058 2.594 0 5.017.443 7.338 1.365 2.287.888 4.232 2.116 5.87 3.652l-2.116 2.629c-1.638-1.57-3.345-2.663-5.085-3.345a15.59 15.59 0 0 0-5.564-1.024c-1.536 0-2.97.238-4.3.75a9.194 9.194 0 0 0-3.448 2.322c-.955 1.058-1.706 2.389-2.252 3.993-.58 1.638-.853 3.55-.853 5.769 0 2.252.273 4.164.853 5.802.546 1.605 1.297 2.936 2.32 3.994 1.025 1.024 2.185 1.809 3.585 2.32 1.365.513 2.867.752 4.539.752zM74.338 199.613h13.175l-6.383-16.145h-.41zM85.84 179.78l12.117 30.515h-6.144l-2.799-7.407H72.836l-2.799 7.407h-6.11l12.118-30.515zM115.74 179.781c1.876 0 3.515.205 5.017.717 1.467.478 2.696 1.16 3.72 2.082s1.809 2.048 2.355 3.38c.546 1.296.82 2.832.82 4.505 0 2.32-.513 4.267-1.503 5.87-.99 1.605-2.423 2.834-4.266 3.687l6.11 10.24h-6.11l-5.461-9.113h-8.635v9.113h-5.393v-30.48zm-7.953 3.277v14.78h7.952c1.98 0 3.482-.58 4.54-1.775 1.058-1.23 1.604-3.072 1.604-5.632 0-2.526-.546-4.37-1.604-5.564-1.058-1.229-2.56-1.809-4.54-1.809zM149.393 179.781c2.56 0 4.88.307 6.928.99 2.082.649 3.891 1.604 5.359 2.867 1.502 1.263 2.662 2.867 3.481 4.779.82 1.911 1.23 4.096 1.23 6.588 0 2.525-.41 4.71-1.23 6.621a12.924 12.924 0 0 1-3.481 4.78c-1.468 1.296-3.277 2.218-5.359 2.9-2.047.649-4.368.956-6.928.956h-14.028v-30.48zm-7.85 3.277v23.961h7.85a12.22 12.22 0 0 0 4.061-.682 8.073 8.073 0 0 0 3.277-2.15c.956-.956 1.672-2.185 2.253-3.721.546-1.502.819-3.311.819-5.461 0-2.117-.273-3.926-.82-5.428-.58-1.501-1.296-2.764-2.252-3.754-.922-.956-2.014-1.673-3.277-2.116s-2.628-.649-4.061-.649z" fill="#ffffff" opacity="1" data-original="#ffffff" class=""></path><path d="M294.417 179.133c21.195 0 38.432 17.203 38.432 38.434 0 21.196-17.237 38.4-38.432 38.4-21.196 0-38.398-17.204-38.398-38.4 0-21.231 17.202-38.434 38.398-38.434zM25.598 353.246v-9.011c0-2.799 2.014-5.086 4.506-5.086h3.754c2.492 0 4.54 2.287 4.54 5.086v9.011c0 2.799-2.048 5.12-4.54 5.12h-3.754c-2.492 0-4.506-2.321-4.506-5.12zm8.533-1.911v-5.189c0-1.194-.887-2.184-1.98-2.184h-.34c-1.093 0-1.946.99-1.946 2.184v5.189c0 1.228.853 2.184 1.945 2.184h.342c1.092 0 1.98-.956 1.98-2.184zM44.814 353.246v-9.011c0-2.799 2.014-5.086 4.54-5.086h3.72c2.492 0 4.506 2.287 4.506 5.086v9.011c0 2.799-2.014 5.12-4.506 5.12h-3.72c-2.526 0-4.54-2.321-4.54-5.12zm8.533-1.911v-5.189c0-1.194-.887-2.184-2.014-2.184h-.307c-1.092 0-1.945.99-1.945 2.184v5.189c0 1.228.853 2.184 1.945 2.184h.307c1.127 0 2.014-.956 2.014-2.184zM63.996 353.246v-9.011c0-2.799 2.014-5.086 4.574-5.086h3.686c2.492 0 4.54 2.287 4.54 5.086v9.011c0 2.799-2.048 5.12-4.54 5.12H68.57c-2.56 0-4.574-2.321-4.574-5.12zm8.533-1.911v-5.189c0-1.194-.887-2.184-1.98-2.184h-.307c-1.092 0-1.98.99-1.98 2.184v5.189c0 1.228.888 2.184 1.98 2.184h.307c1.093 0 1.98-.956 1.98-2.184zM83.212 353.246v-9.011c0-2.799 2.014-5.086 4.54-5.086h3.686c2.526 0 4.54 2.287 4.54 5.086v9.011c0 2.799-2.014 5.12-4.54 5.12h-3.686c-2.526 0-4.54-2.321-4.54-5.12zm8.499-1.911v-5.189c0-1.194-.853-2.184-1.98-2.184h-.307c-1.092 0-1.945.99-1.945 2.184v5.189c0 1.228.853 2.184 1.945 2.184h.307c1.127 0 1.98-.956 1.98-2.184zM121.61 353.246v-9.011c0-2.799 2.014-5.086 4.505-5.086h3.72c2.526 0 4.574 2.287 4.574 5.086v9.011c0 2.799-2.048 5.12-4.573 5.12h-3.72c-2.492 0-4.506-2.321-4.506-5.12zm8.533-1.911v-5.189c0-1.194-.888-2.184-2.014-2.184h-.307c-1.092 0-1.98.99-1.98 2.184v5.189c0 1.228.888 2.184 1.98 2.184h.307c1.126 0 2.014-.956 2.014-2.184zM140.792 353.246v-9.011c0-2.799 2.048-5.086 4.573-5.086h3.686c2.492 0 4.54 2.287 4.54 5.086v9.011c0 2.799-2.048 5.12-4.54 5.12h-3.686c-2.525 0-4.573-2.321-4.573-5.12zm8.567-1.911v-5.189c0-1.194-.922-2.184-2.014-2.184h-.307c-1.093 0-1.946.99-1.946 2.184v5.189c0 1.228.853 2.184 1.946 2.184h.307c1.092 0 2.014-.956 2.014-2.184zM160.008 353.246v-9.011c0-2.799 2.013-5.086 4.54-5.086h3.685c2.526 0 4.574 2.287 4.574 5.086v9.011c0 2.799-2.048 5.12-4.574 5.12h-3.686c-2.526 0-4.54-2.321-4.54-5.12zm8.532-1.911v-5.189c0-1.194-.887-2.184-1.98-2.184h-.34c-1.093 0-1.946.99-1.946 2.184v5.189c0 1.228.853 2.184 1.945 2.184h.342c1.092 0 1.98-.956 1.98-2.184zM179.224 353.246v-9.011c0-2.799 2.013-5.086 4.539-5.086h3.686c2.492 0 4.54 2.287 4.54 5.086v9.011c0 2.799-2.048 5.12-4.54 5.12h-3.686c-2.526 0-4.54-2.321-4.54-5.12zm8.498-1.911v-5.189c0-1.194-.887-2.184-1.98-2.184h-.307c-1.092 0-1.945.99-1.945 2.184v5.189c0 1.228.853 2.184 1.945 2.184h.308c1.092 0 1.98-.956 1.98-2.184zM217.621 353.246v-9.011c0-2.799 2.014-5.086 4.506-5.086h3.72c2.526 0 4.54 2.287 4.54 5.086v9.011c0 2.799-2.014 5.12-4.54 5.12h-3.72c-2.492 0-4.506-2.321-4.506-5.12zm8.499-1.911v-5.189c0-1.194-.887-2.184-1.98-2.184h-.307c-1.092 0-1.98.99-1.98 2.184v5.189c0 1.228.888 2.184 1.98 2.184h.307c1.093 0 1.98-.956 1.98-2.184zM236.803 353.246v-9.011c0-2.799 2.014-5.086 4.54-5.086h3.72c2.491 0 4.54 2.287 4.54 5.086v9.011c0 2.799-2.049 5.12-4.54 5.12h-3.72c-2.526 0-4.54-2.321-4.54-5.12zm8.533-1.911v-5.189c0-1.194-.922-2.184-2.014-2.184h-.307c-1.092 0-1.946.99-1.946 2.184v5.189c0 1.228.854 2.184 1.946 2.184h.307c1.092 0 2.014-.956 2.014-2.184zM256.019 353.246v-9.011c0-2.799 2.014-5.086 4.505-5.086h3.72c2.526 0 4.54 2.287 4.54 5.086v9.011c0 2.799-2.014 5.12-4.54 5.12h-3.72c-2.491 0-4.505-2.321-4.505-5.12zm8.499-1.911v-5.189c0-1.194-.854-2.184-1.98-2.184h-.307c-1.092 0-1.98.99-1.98 2.184v5.189c0 1.228.888 2.184 1.98 2.184h.307c1.126 0 1.98-.956 1.98-2.184zM275.2 353.246v-9.011c0-2.799 2.015-5.086 4.574-5.086h3.687c2.491 0 4.539 2.287 4.539 5.086v9.011c0 2.799-2.048 5.12-4.54 5.12h-3.686c-2.56 0-4.573-2.321-4.573-5.12zm8.534-1.911v-5.189c0-1.194-.888-2.184-2.014-2.184h-.273c-1.092 0-1.98.99-1.98 2.184v5.189c0 1.228.888 2.184 1.98 2.184h.273c1.126 0 2.014-.956 2.014-2.184zM313.598 353.246v-9.011c0-2.799 2.048-5.086 4.54-5.086h3.72c2.492 0 4.54 2.287 4.54 5.086v9.011c0 2.799-2.048 5.12-4.54 5.12h-3.72c-2.492 0-4.54-2.321-4.54-5.12zm8.533-1.911v-5.189c0-1.194-.887-2.184-2.013-2.184h-.273c-1.093 0-1.98.99-1.98 2.184v5.189c0 1.228.887 2.184 1.98 2.184h.273c1.126 0 2.013-.956 2.013-2.184zM332.78 353.246v-9.011c0-2.799 2.048-5.086 4.574-5.086h3.686c2.526 0 4.574 2.287 4.574 5.086v9.011c0 2.799-2.048 5.12-4.574 5.12h-3.686c-2.526 0-4.574-2.321-4.574-5.12zm8.567-1.911v-5.189c0-1.194-.921-2.184-2.013-2.184h-.308c-1.092 0-1.98.99-1.98 2.184v5.189c0 1.228.888 2.184 1.98 2.184h.308c1.092 0 2.013-.956 2.013-2.184zM351.996 353.246v-9.011c0-2.799 2.048-5.086 4.54-5.086h3.72c2.492 0 4.54 2.287 4.54 5.086v9.011c0 2.799-2.048 5.12-4.54 5.12h-3.72c-2.492 0-4.54-2.321-4.54-5.12zm8.533-1.911v-5.189c0-1.194-.887-2.184-1.98-2.184h-.307c-1.092 0-1.98.99-1.98 2.184v5.189c0 1.228.888 2.184 1.98 2.184h.307c1.093 0 1.98-.956 1.98-2.184zM371.212 353.246v-9.011c0-2.799 2.014-5.086 4.54-5.086h3.686c2.491 0 4.573 2.287 4.573 5.086v9.011c0 2.799-2.082 5.12-4.573 5.12h-3.686c-2.526 0-4.54-2.321-4.54-5.12zm8.533-1.911v-5.189c0-1.194-.922-2.184-2.014-2.184h-.307c-1.092 0-1.945.99-1.945 2.184v5.189c0 1.228.853 2.184 1.945 2.184h.307c1.092 0 2.014-.956 2.014-2.184z" fill="#ffffff" opacity="1" data-original="#ffffff" class=""></path></g></g></svg>