<svg xmlns="http://www.w3.org/2000/svg" version="1.1" xmlns:xlink="http://www.w3.org/1999/xlink" width="512" height="512" x="0" y="0" viewBox="0 0 512 512" style="enable-background:new 0 0 512 512" xml:space="preserve" class=""><g transform="matrix(1.1399999999999992,0,0,1.1399999999999992,-35.8392993164058,-35.84070175170871)"><g fill-rule="evenodd" clip-rule="evenodd"><path fill="#e00f5b" d="M45.32 356.93h52.67v109.76H45.32z" opacity="1" data-original="#e00f5b"></path><path fill="#ffcb00" d="M137.49 268.82h52.67v197.87h-52.67z" opacity="1" data-original="#ffcb00" class=""></path><path fill="#fe9d4e" d="M229.66 316.57h52.67v150.11h-52.67z" opacity="1" data-original="#fe9d4e"></path><path fill="#35a872" d="M321.84 227.11h52.67v239.57h-52.67z" opacity="1" data-original="#35a872"></path><path fill="#2d85cc" d="M414.02 145.11h52.67v321.57h-52.67z" opacity="1" data-original="#2d85cc"></path><circle cx="139.27" cy="139.27" r="93.96" fill="#ffcb00" transform="rotate(-67.48 139.324 139.24)" opacity="1" data-original="#ffcb00" class=""></circle><path fill="#35a872" d="m64.11 252.43 97.81-93.5 92.36 47.85L388.21 84.36l-21.29-21.94h60.46v60.45l-21.95-24.65-147.71 135.01-91.99-47.66-86.54 82.72z" opacity="1" data-original="#35a872"></path><path d="m421.22 106.73-11.19-12.6a6.168 6.168 0 0 0-4.28-2.05c-1.65-.12-3.26.5-4.47 1.61L256.73 225.8l-88.19-45.69c-2.3-1.21-5.16-.8-7.06 1.01L79.4 259.59l-6.62-6.95 90.2-86.24 88.44 45.83c2.31 1.19 5.09.82 6.99-.92L392.36 88.9a6.14 6.14 0 0 0 1.97-4.35 6.03 6.03 0 0 0-1.72-4.47l-11.19-11.53h39.8zM139.28 227.08c20.37 0 39.72-6.91 55.34-19.63l-27.84-14.41-35.22 33.67c2.56.22 5.12.37 7.72.37zm-87.82-87.81c0 31.22 16.42 59.75 43.09 75.54l26.81-25.62c-8.01-5.67-12.98-14.92-12.98-25.18 0-3.39 2.74-6.15 6.15-6.15 3.4 0 6.15 2.75 6.15 6.15 0 7.01 3.88 13.23 9.87 16.41l25.49-24.35c-3.03-6.35-9.4-10.65-16.75-10.65-17.04 0-30.91-13.85-30.91-30.88 0-14.93 10.64-27.41 24.76-30.27v-9.22c0-3.39 2.75-6.15 6.15-6.15 3.36 0 6.15 2.75 6.15 6.15v9.22c14.09 2.86 24.73 15.34 24.73 30.27 0 3.39-2.75 6.14-6.15 6.14s-6.15-2.75-6.15-6.14c0-10.25-8.34-18.6-18.58-18.6-10.28 0-18.62 8.34-18.62 18.6 0 10.25 8.34 18.6 18.62 18.6 14.01 0 26.04 9.31 29.74 22.55l47.8 24.78c6.73-12.63 10.24-26.75 10.24-41.19 0-48.42-39.39-87.81-87.79-87.81-48.43-.01-87.82 39.38-87.82 87.8zm378.1-10.65a6.141 6.141 0 0 0 3.95-5.74V62.42c0-3.39-2.75-6.15-6.15-6.15H366.9c-2.45 0-4.69 1.48-5.63 3.75-.99 2.28-.48 4.9 1.24 6.67l16.86 17.41-126.08 115.26-25.57-13.24c7.65-14.38 11.63-30.44 11.63-46.85 0-55.19-44.88-100.1-100.08-100.1-55.19 0-100.11 44.91-100.11 100.1 0 34.43 17.52 66 46.2 84.33l-25.49 24.39c-2.45 2.34-2.56 6.23-.22 8.68l15.07 15.86a6.264 6.264 0 0 0 4.32 1.91h.15c1.57 0 3.11-.61 4.24-1.7l36.83-35.2c6.26 1.2 12.62 1.84 19.02 1.84 25.02 0 48.65-9.15 67.08-25.83l48.54 25.14c2.27 1.19 5.05.82 6.95-.92l143.12-130.81 17.81 20.01a6.186 6.186 0 0 0 6.78 1.65zm30.98 331.92V151.25h-40.38v309.29zm6.14-321.58h-52.67c-3.4 0-6.15 2.75-6.15 6.15v321.57c0 3.4 2.74 6.15 6.15 6.15h52.67c3.4 0 6.15-2.75 6.15-6.15V145.11c0-3.4-2.75-6.15-6.15-6.15zm-98.32 321.58V233.25h-40.38v227.29zm6.15-239.57h-52.67c-3.4 0-6.14 2.75-6.14 6.15v239.57c0 3.4 2.74 6.15 6.14 6.15h52.67c3.4 0 6.15-2.75 6.15-6.15V227.11a6.15 6.15 0 0 0-6.15-6.14zm-98.32 239.57h-40.38V322.72h40.38zm6.15-150.11h-52.67c-3.4 0-6.15 2.75-6.15 6.14v150.11c0 3.4 2.75 6.15 6.15 6.15h52.67c3.4 0 6.15-2.75 6.15-6.15V316.57a6.156 6.156 0 0 0-6.15-6.14zm-98.33 150.11h-40.38V274.96h40.38zm6.15-197.87c3.4 0 6.15 2.75 6.15 6.14v197.87c0 3.4-2.74 6.15-6.15 6.15h-52.67c-3.4 0-6.15-2.75-6.15-6.15V268.81c0-3.39 2.74-6.14 6.15-6.14zM91.84 460.54H51.46v-97.47h40.38zm6.15-109.76H45.32c-3.4 0-6.15 2.75-6.15 6.14v109.76c0 3.4 2.75 6.15 6.15 6.15h52.67c3.4 0 6.15-2.75 6.15-6.15V356.92a6.15 6.15 0 0 0-6.15-6.14z" fill="#000000" opacity="1" data-original="#000000" class=""></path></g></g></svg>