<svg xmlns="http://www.w3.org/2000/svg" version="1.1" xmlns:xlink="http://www.w3.org/1999/xlink" width="512" height="512" x="0" y="0" viewBox="0 0 512 512" style="enable-background:new 0 0 512 512" xml:space="preserve" class=""><g><linearGradient id="a" x1="43.93" x2="468.07" y1="43.93" y2="468.07" gradientUnits="userSpaceOnUse"><stop offset="0" stop-color="#64b5f6"></stop><stop offset="1" stop-color="#1976d2"></stop></linearGradient><linearGradient id="b" x1="172.09" x2="481.82" y1="144.58" y2="454.31" gradientUnits="userSpaceOnUse"><stop offset="0" stop-opacity=".35"></stop><stop offset="1" stop-opacity="0"></stop></linearGradient><rect width="512" height="512" fill="url(#a)" rx="150" opacity="1" data-original="url(#a)" class=""></rect><path fill="url(#b)" d="M512 262.22V362c0 82.84-67.16 150-150 150h-44.76L85.43 280.19l77.19-46.41-39.86-39.87 54.71-54.71 97.7 97.69 10.94-14.67 44.28 44.28 48.51-27.95-44.64-44.64 54.72-54.71z" opacity="1" data-original="url(#b)"></path><path fill="#ffffff" d="M333.96 369.13c-2.86 8.37-10.76 14.71-20.54 14.71H198.58c-14.69 0-25.13-14.31-20.65-28.3l14.63-45.65c2.91-9.07 13.25-13.28 21.72-8.94 9.52 4.86 23.43 9.54 41.72 9.54s32.2-4.68 41.72-9.54c3.37-1.72 7.02-2.1 10.39-1.35-8.48 5.87-14.04 15.67-14.04 26.74 0 17.94 14.59 32.52 32.52 32.52h7.23v7.23c0 1.03.05 2.04.14 3.04zM256 209.57c-23.5 0-42.55 19.05-42.55 42.55s19.05 42.55 42.55 42.55 42.55-19.05 42.55-42.55-19.05-42.55-42.55-42.55zm175.94 48.46-11.99-37.41c-2.87-8.97-13.02-13.19-21.48-9.07-8.61 4.2-20.85 8.06-36.71 8.06s-28.1-3.87-36.7-8.06c-8.46-4.13-18.62.1-21.48 9.06l-.03.09a56.613 56.613 0 0 1 9.46 31.41c0 12.83-4.26 24.67-11.44 34.21h32.26c.14-17.81 14.68-32.25 32.52-32.25s32.37 14.45 32.52 32.25h12.44c14.69 0 25.13-14.3 20.65-28.29zm-70.18-130.2c-21.37 0-38.69 17.32-38.69 38.69s17.32 38.69 38.69 38.69 38.69-17.32 38.69-38.69-17.32-38.69-38.69-38.69zM199.01 252.11c0-11.6 3.48-22.4 9.46-31.41l-.03-.09c-2.87-8.97-13.02-13.19-21.48-9.07-8.6 4.19-20.84 8.06-36.7 8.06s-28.11-3.87-36.71-8.06c-8.46-4.12-18.61.1-21.48 9.07l-11.99 37.41c-4.48 13.99 5.96 28.29 20.65 28.29h109.73c-7.18-9.54-11.44-21.38-11.44-34.21zm-48.76-124.28c-21.37 0-38.69 17.32-38.69 38.69s17.32 38.69 38.69 38.69 38.69-17.32 38.69-38.69-17.32-38.69-38.69-38.69zm255.84 180.44h-21.68v-21.68c0-9.98-8.09-18.07-18.07-18.07s-18.07 8.09-18.07 18.07v21.68h-21.68c-9.98 0-18.07 8.09-18.07 18.07s8.09 18.07 18.07 18.07h21.68v21.68c0 9.98 8.09 18.07 18.07 18.07s18.07-8.09 18.07-18.07v-21.68h21.68c9.98 0 18.07-8.09 18.07-18.07s-8.09-18.07-18.07-18.07z" data-name="UsersAdd" opacity="1" data-original="#ffffff" class=""></path></g></svg>