<svg xmlns="http://www.w3.org/2000/svg" version="1.1" xmlns:xlink="http://www.w3.org/1999/xlink" width="512" height="512" x="0" y="0" viewBox="0 0 64 64" style="enable-background:new 0 0 512 512" xml:space="preserve" class=""><g><rect width="26" height="46" x="24" y="3" fill="#46f8ff" rx="4" opacity="1" data-original="#46f8ff"></rect><path fill="#00d7df" d="M50 7v38c0 2.21-1.79 4-4 4h-3c1.01 0 2.29-.38 3-1V8.73c-.29.17-.64.27-1 .27H32c-1.1 0-2-.9-2-2V3h16c.35 0 .68.04 1 .13 1.73.44 3 2.01 3 3.87z" opacity="1" data-original="#00d7df"></path><path fill="#ffde55" d="M44 3v2c0 1.1-.9 2-2 2H32c-1.1 0-2-.9-2-2V3z" opacity="1" data-original="#ffde55"></path><path fill="#ffde55" d="M44 3v2c0 1.1-.9 2-2 2H32c-1.1 0-2-.9-2-2V3z" opacity="1" data-original="#ffde55"></path><path fill="#00d7df" d="M47 3v.13c-.32-.09-.65-.13-1-.13z" opacity="1" data-original="#00d7df"></path><path fill="#ebbf00" d="M44 3v2c0 1.1-.9 2-2 2h-3c1.1 0 2-.9 2-2V3z" opacity="1" data-original="#ebbf00"></path><path fill="#00d7df" d="M50 32v6l-.76.76A6.005 6.005 0 0 0 47.83 45c.11.33.26.66.44.98l.94 1.39C48.49 48.36 47.32 49 46 49h-4c1.32 0 2.49-.64 3.21-1.63l-.94-1.39c-.18-.32-.33-.65-.44-.98a6.005 6.005 0 0 1 1.41-6.24L46 38v-6l-1.87-3-2.19-3.5c-.42-.67-.63-1.44-.63-2.21A4.15 4.15 0 0 1 46 19.16c.51.06 1.01.22 1.48.48-.98.52-1.75 1.43-2.05 2.64-.08.33-.12.67-.12 1.01 0 .77.21 1.54.63 2.21l2.19 3.5z" opacity="1" data-original="#00d7df"></path><path fill="#ffde55" d="M50 29v16H36c-1.1 0-2-.9-2-2V31a2 2 0 0 1 2-2z" opacity="1" data-original="#ffde55"></path><path fill="#ebbf00" d="M46 29h4v16h-4z" opacity="1" data-original="#ebbf00"></path><path fill="#57a4ff" d="M61 61H34l2-6h23z" opacity="1" data-original="#57a4ff"></path><path fill="#006df0" d="M61 61h-5l-2-6h5z" opacity="1" data-original="#006df0"></path><path fill="#ffdaaa" d="M59 29.89v13.18c0 1.28-.24 2.54-.72 3.72L55 55H40l-8-6h14c1.32 0 2.49-.64 3.21-1.63l-.94-1.39c-.18-.32-.33-.65-.44-.98a6.005 6.005 0 0 1 1.41-6.24L50 38v-6l-1.87-3-2.19-3.5c-.42-.67-.63-1.44-.63-2.21A4.15 4.15 0 0 1 50 19.16c.73.08 1.44.37 2.07.87l5.34 5.8A5.99 5.99 0 0 1 59 29.89z" opacity="1" data-original="#ffdaaa"></path><path fill="#ffb655" d="M59 29.89v13.18c0 1.28-.24 2.54-.72 3.72L55 55h-4l3.28-8.21c.48-1.18.72-2.44.72-3.72V29.89c0-1.5-.57-2.96-1.59-4.06l-5.34-5.8c-.19-.15-.38-.28-.59-.39a4.14 4.14 0 0 1 2.52-.48c.73.08 1.44.37 2.07.87l5.34 5.8A5.99 5.99 0 0 1 59 29.89z" opacity="1" data-original="#ffb655"></path><path fill="#ffdaaa" d="M29.11 28.73c.56.69.89 1.55.89 2.49 0 2.47-2.26 4.33-4.69 3.84L20 34v-3.32c2.46-.54 4.69-1.73 6.48-3.38l.37.07c.91.19 1.7.68 2.26 1.36z" opacity="1" data-original="#ffdaaa"></path><path fill="#ffdaaa" d="M29.11 36.73c.56.69.89 1.55.89 2.49 0 2.47-2.26 4.33-4.69 3.84l-1.15-.23-.94-.19A3.995 3.995 0 0 1 20 38.72V34l5.31 1.06 1.54.31c.91.19 1.7.68 2.26 1.36z" opacity="1" data-original="#ffdaaa"></path><g fill="#ffb655"><path d="M30 31.22c0 2.47-2.26 4.33-4.69 3.84l-.86-.17a3.921 3.921 0 0 0 1.66-6.16c-.18-.22-.39-.42-.62-.6.34-.26.67-.54.99-.83l.37.07c.91.19 1.7.68 2.26 1.36.56.69.89 1.55.89 2.49z" fill="#ffb655" opacity="1" data-original="#ffb655"></path><path d="M30 39.22c0 2.47-2.26 4.33-4.69 3.84l-.86-.17a3.921 3.921 0 0 0 1.66-6.16 3.975 3.975 0 0 0-2.26-1.36l-1.54-.31c.75.15 1.49.08 2.14-.17l.86.17 1.54.31c.91.19 1.7.68 2.26 1.36.56.69.89 1.55.89 2.49z" fill="#ffb655" opacity="1" data-original="#ffb655"></path></g><path fill="#009698" d="m27 56-5 5v-2h-5v-6h5v-2zM13 56l-5 5v-2H3v-6h5v-2z" opacity="1" data-original="#009698"></path><path fill="#007579" d="M3 53h3v6H3zM17 53h3v6h-3z" opacity="1" data-original="#007579"></path><circle cx="17" cy="17" r="14" fill="#009698" opacity="1" data-original="#009698"></circle><path fill="#007579" d="M31 17c0 7.73-6.27 14-14 14-4.89 0-9.19-2.51-11.69-6.31C7.52 26.15 10.16 27 13 27c7.73 0 14-6.27 14-14 0-2.84-.85-5.48-2.31-7.69C28.49 7.81 31 12.11 31 17z" opacity="1" data-original="#007579"></path><circle cx="17" cy="17" r="10" fill="#ffde55" opacity="1" data-original="#ffde55"></circle><path fill="#ebbf00" d="M27 17c0 5.52-4.48 10-10 10-3.79 0-7.09-2.11-8.78-5.22C9.64 22.56 11.27 23 13 23c5.52 0 10-4.48 10-10 0-1.73-.44-3.36-1.22-4.78A9.984 9.984 0 0 1 27 17z" opacity="1" data-original="#ebbf00"></path><path d="m61.95 60.68-2-6c-.14-.4-.52-.68-.95-.68h-2.52l2.73-6.84c.53-1.31.79-2.68.79-4.09V29.89c0-1.76-.66-3.45-1.85-4.74l-5.35-5.8c-.03-.03-.07-.07-.11-.1a5 5 0 0 0-1.69-.89V7c0-2.76-2.24-5-5-5H28c-1.51 0-2.91.68-3.84 1.82A14.929 14.929 0 0 0 17 2C8.73 2 2 8.73 2 17s6.73 15 15 15c.68 0 1.34-.06 2-.15v6.87c0 2.37 1.68 4.42 4 4.9V45c0 2.76 2.24 5 5 5h3.67L37 54h-1c-.43 0-.81.28-.95.68l-2 6c-.1.31-.05.64.14.9.19.27.49.42.81.42h27c.32 0 .62-.15.81-.42.19-.26.24-.59.14-.9zM31 4h12v1c0 .55-.45 1-1 1H32c-.55 0-1-.45-1-1zM17 30C9.83 30 4 24.17 4 17S9.83 4 17 4s13 5.83 13 13-5.83 13-13 13zm11.33-.64c.44.54.67 1.18.67 1.86a2.914 2.914 0 0 1-3.49 2.86l-4.51-.9v-1.74c2.15-.59 4.1-1.65 5.75-3.06.62.15 1.18.5 1.58.98zm-4.92 12.3A2.999 2.999 0 0 1 21 38.72v-3.5l5.65 1.13c1.36.27 2.35 1.48 2.35 2.87 0 .87-.39 1.7-1.07 2.26-.68.55-1.57.77-2.43.6zM28 48c-1.65 0-3-1.35-3-3v-.98l.11.02c.33.07.65.1.97.1 1.13 0 2.23-.39 3.12-1.12 1.14-.94 1.8-2.32 1.8-3.8 0-1.63-.82-3.1-2.08-4 .09-.07.19-.12.28-.19a4.929 4.929 0 0 0 .68-6.94c-.43-.52-.98-.94-1.59-1.25C30.59 24.21 32 20.77 32 17c0-4.96-2.43-9.35-6.15-12.09C26.4 4.34 27.17 4 28 4h1v1c0 1.65 1.35 3 3 3h10c1.65 0 3-1.35 3-3V4h1c1.65 0 3 1.35 3 3v11.15c-.4.04-.8.12-1.19.25a5.159 5.159 0 0 0-3.35 3.64 5.18 5.18 0 0 0 .63 3.99L46.32 28H36c-1.65 0-3 1.35-3 3v12c0 1.65 1.35 3 3 3h11.19c.09.18.15.36.26.54l.49.73c-.53.47-1.22.73-1.94.73zm9-8v2h9.57c-.09.66-.08 1.33.02 2H36c-.55 0-1-.45-1-1V31c0-.55.45-1 1-1h11.57L49 32.29v5.3l-.47.46c-.69.69-1.19 1.51-1.53 2.39V40zm-2 10h11a5 5 0 0 0 3.07-1.07l1.1 1.63 1.66-1.12-2.69-3.96a5.011 5.011 0 0 1 .81-6.01l.76-.76c.18-.19.29-.44.29-.71v-6c0-.19-.05-.37-.15-.53l-4.06-6.5c-.46-.72-.6-1.62-.39-2.45a3.147 3.147 0 0 1 2.06-2.23c1-.34 2.09-.16 2.93.48l5.28 5.73c.86.93 1.33 2.13 1.33 3.39v13.18c0 1.15-.22 2.28-.64 3.35L54.32 54H40.33zm.39 10 1.33-4h21.56l1.33 4z" fill="#000000" opacity="1" data-original="#000000" class=""></path><path d="M37 36h10v2H37zM37 32h10v2H37zM39 18v4.586l-1.293-1.293-1.414 1.414 3 3a.997.997 0 0 0 1.414 0l3-3-1.414-1.414L41 22.586V18c0-1.654-1.346-3-3-3h-4v2h4a1 1 0 0 1 1 1zM17 6C10.935 6 6 10.935 6 17s4.935 11 11 11 11-4.935 11-11S23.065 6 17 6zm0 20c-4.962 0-9-4.037-9-9s4.038-9 9-9 9 4.037 9 9-4.038 9-9 9z" fill="#000000" opacity="1" data-original="#000000" class=""></path><path d="M18 10h-2v2c-1.103 0-2 .897-2 2v2c0 1.103.897 2 2 2h2v2h-4v2h2v2h2v-2c1.103 0 2-.897 2-2v-2c0-1.103-.897-2-2-2h-2v-2h4v-2h-2zM8.707 50.293A.999.999 0 0 0 7 51v1H3a1 1 0 0 0-1 1v6a1 1 0 0 0 1 1h4v1a1 1 0 0 0 1.707.707l5-5a.999.999 0 0 0 0-1.414zm.229 8.356A1 1 0 0 0 7.999 58H4v-4h4c.429 0 .794-.27.937-.649L11.586 56l-2.649 2.649zM22.707 50.293A.999.999 0 0 0 21 51v1h-4a1 1 0 0 0-1 1v6a1 1 0 0 0 1 1h4v1a1 1 0 0 0 1.707.707l5-5a.999.999 0 0 0 0-1.414zm.229 8.356a1 1 0 0 0-.937-.649h-4v-4h4c.429 0 .794-.27.937-.649L25.585 56z" fill="#000000" opacity="1" data-original="#000000" class=""></path></g></svg>