<svg xmlns="http://www.w3.org/2000/svg" version="1.1" xmlns:xlink="http://www.w3.org/1999/xlink" width="512" height="512" x="0" y="0" viewBox="0 0 61 60" style="enable-background:new 0 0 512 512" xml:space="preserve" class=""><g><g fill="none" fill-rule="evenodd"><path fill="#ec4e5a" d="M41 9h16.05a2.005 2.005 0 0 1 2 2v46a2.005 2.005 0 0 1-2 2H23.03a2 2 0 0 1-2-1.981L21 53z" opacity="1" data-original="#ec4e5a"></path><path fill="#7aec4e" d="M41 3v48a2.006 2.006 0 0 1-2 2H3a2.006 2.006 0 0 1-2-2V11L11 1h28a2.006 2.006 0 0 1 2 2" opacity="1" data-original="#c4e5ec" class=""></path><path fill="#ffffff" d="M11 1v8a2.006 2.006 0 0 1-2 2H1zM43.63 41.79 41 43.93l-3.46 2.81a.946.946 0 0 1-1.54-.78V44H25a1 1 0 0 1-1-1v-4a1 1 0 0 1 1-1h11v-1.96a.946.946 0 0 1 1.54-.78L41 38.07l2.63 2.14a1.033 1.033 0 0 1 0 1.58z" opacity="1" data-original="#ffffff" class=""></path><path fill="#b0ced4" d="M39 1h-4a2.007 2.007 0 0 1 2 2v32l4 3V3a2.006 2.006 0 0 0-2-2" opacity="1" data-original="#b0ced4" class=""></path><path fill="#d44651" d="M57.05 9h-4a2.006 2.006 0 0 1 2 2v46a2.006 2.006 0 0 1-2 2h4a2.005 2.005 0 0 0 2-2V11a2.005 2.005 0 0 0-2-2" opacity="1" data-original="#d44651" class=""></path><path fill="#b0ced4" d="M41 53h-4v-6l4-2z" opacity="1" data-original="#b0ced4" class=""></path><g fill="#17173f"><path fill-rule="nonzero" d="M57.05 8H42V3a3 3 0 0 0-3-3H11c-.021 0-.039.011-.059.012a.982.982 0 0 0-.263.052c-.031.011-.062.019-.092.033a1 1 0 0 0-.293.2l-10 10a1 1 0 0 0-.2.293c-.014.03-.022.062-.033.093a1 1 0 0 0-.052.259C.011 10.96 0 10.979 0 11v40a3 3 0 0 0 3 3h17.007l.023 3.028a3.009 3.009 0 0 0 3 2.972h34.02a3 3 0 0 0 3-3V11a3 3 0 0 0-3-3zM36 43H25v-4h11a1 1 0 0 0 1-1l-.091-1.964 6.084 4.983-.079.065-2.54 2.067h-.005L37 45.96V44a1 1 0 0 0-1-1zM10 3.414V9a1 1 0 0 1-1 1H3.414zM2 51V12h7a3 3 0 0 0 3-3V2h27a1 1 0 0 1 1 1v32.97l-1.823-1.482a1.9 1.9 0 0 0-2.043-.261A1.979 1.979 0 0 0 35 36.04V37H25a2 2 0 0 0-2 2v4a2 2 0 0 0 2 2h10v.96a1.979 1.979 0 0 0 1.134 1.813c.15.07.31.119.474.147.05.009.1.011.149.016.066.011.133.018.2.022.033 0 .065-.015.1-.017a1.8 1.8 0 0 0 .405-.071c.062-.013.123-.03.183-.05.193-.07.373-.172.533-.3L40 46.03V51a1 1 0 0 1-1 1H3a1 1 0 0 1-1-1zm56.05 6a1 1 0 0 1-1 1H23.03a.991.991 0 0 1-1-.988L22.008 54H39a3 3 0 0 0 3-3v-6.595l2.263-1.841a2.031 2.031 0 0 0 0-3.129L42 37.6V34h11.052a1 1 0 0 0 0-2H42v-3h1.052a1 1 0 0 0 0-2H42v-3h11.052a1 1 0 0 0 0-2H42V10h15.05a1 1 0 0 1 1 1z" fill="#17173f" opacity="1" data-original="#17173f" class=""></path><path d="M7 18h28a1 1 0 0 0 0-2H7a1 1 0 0 0 0 2zM35 21h-5a1 1 0 0 0 0 2h5a1 1 0 0 0 0-2zM7 23h18a1 1 0 0 0 0-2H7a1 1 0 0 0 0 2zM12 26H7a1 1 0 0 0 0 2h5a1 1 0 0 0 0-2zM36 27a1 1 0 0 0-1-1H17a1 1 0 0 0 0 2h18a1 1 0 0 0 1-1zM53.052 27h-5a1 1 0 0 0 0 2h5a1 1 0 0 0 0-2z" fill="#17173f" opacity="1" data-original="#17173f" class=""></path></g></g></g></svg>