<svg xmlns="http://www.w3.org/2000/svg" version="1.1" xmlns:xlink="http://www.w3.org/1999/xlink" width="512" height="512" x="0" y="0" viewBox="0 0 512 512" style="enable-background:new 0 0 512 512" xml:space="preserve" class=""><g transform="matrix(1.0000000000000002,0,0,1.0000000000000002,-2.842170943040401e-14,-2.842170943040401e-14)"><path fill="#e0b999" d="M40 456V208a32 32 0 0 1 32-32h104a32 32 0 0 1 32 32v248z" opacity="1" data-original="#e0b999"></path><path fill="#35a872" d="m33.477 82.258 185.458-49.694 95.246 355.461-185.458 49.693L104 345.451 88 344l9.18-24z" opacity="1" data-original="#35a872" class=""></path><circle cx="173.829" cy="235.141" r="80" fill="#3dc285" opacity="1" data-original="#3dc285" class=""></circle><path fill="#3dc285" d="M112.159 375.9a64 64 0 0 1 78.383 45.255l-61.819 16.564zM33.477 82.258 95.3 65.693a64.006 64.006 0 0 1-45.255 78.384z" opacity="1" data-original="#3dc285" class=""></path><path fill="#f0c6a4" d="M40 480v-56l-16-96 56-72c2.708-6.093 9.332-8 16-8 16 3 18.342 13.462 16 24l-24 72a64 64 0 0 1 64 64v16h27.949L208 416.476V480z" opacity="1" data-original="#f0c6a4" class=""></path><path fill="#3dc285" d="m297.616 326.206 16.565 61.819-61.819 16.565a64 64 0 0 1 45.254-78.384zM157.116 49.129l61.819-16.565 16.565 61.82a64.006 64.006 0 0 1-78.384-45.255z" opacity="1" data-original="#3dc285" class=""></path><path fill="#35a872" d="m95.313 65.67 185.472-49.727 95.312 355.488-185.472 49.728z" opacity="1" data-original="#35a872" class=""></path><circle cx="235.648" cy="218.577" r="80" fill="#3dc285" opacity="1" data-original="#3dc285" class=""></circle><path fill="#35a872" d="m278.427 223.679-4.141-15.454a24 24 0 1 0-46.365 12.423 8 8 0 0 1-15.455 4.141l-4.141-15.455a8 8 0 1 0-15.455 4.141l2.071 7.727-7.728 2.071a8 8 0 1 0 4.141 15.455l9.07-2.43a23.977 23.977 0 0 0 19.73 10.431 24.133 24.133 0 0 0 6.251-.829 24 24 0 0 0 16.971-29.393 8 8 0 1 1 15.455-4.141l4.141 15.454a8 8 0 0 0 15.455-4.141z" opacity="1" data-original="#35a872" class=""></path><g fill="#3dc285"><path d="M173.978 359.335a64.005 64.005 0 0 1 78.384 45.255l-61.82 16.564zM95.3 65.693l61.819-16.564a64.006 64.006 0 0 1-45.255 78.384zM359.436 309.641 376 371.461l-61.819 16.564a64.005 64.005 0 0 1 45.255-78.384zM218.935 32.564 280.754 16l16.565 61.819a64 64 0 0 1-78.384-45.255z" fill="#3dc285" opacity="1" data-original="#3dc285" class=""></path></g><path fill="#2d85cc" d="M216 496H32v-40h184z" opacity="1" data-original="#2d85cc" class=""></path><path fill="#e0b999" d="M456 456V208a32 32 0 0 0-32-32H320a32 32 0 0 0-32 32v248z" opacity="1" data-original="#e0b999"></path><path fill="#35a872" d="M232 56h192v368H232z" opacity="1" data-original="#35a872" class=""></path><circle cx="328" cy="240" r="80" fill="#3dc285" opacity="1" data-original="#3dc285" class=""></circle><path fill="#35a872" d="M376 232h-9.376A24 24 0 0 0 320 240a8 8 0 0 1-16 0v-16a8 8 0 0 0-16 0v8h-8a8 8 0 0 0 0 16h9.376A24 24 0 0 0 336 240a8 8 0 0 1 16 0v16a8 8 0 0 0 16 0v-8h8a8 8 0 0 0 0-16z" opacity="1" data-original="#35a872" class=""></path><path fill="#3dc285" d="M232 360a64.005 64.005 0 0 1 64 64h-64zM232 56h64a64.005 64.005 0 0 1-64 64zM360 56h64v64a64.005 64.005 0 0 1-64-64z" opacity="1" data-original="#3dc285" class=""></path><path fill="#f0c6a4" d="M456 480v-56l16-96-56-72c-2.708-6.093-9.332-8-16-8-16 3-18.342 13.462-16 24l24 72a64 64 0 0 0-64 64v16h-56v56z" opacity="1" data-original="#f0c6a4" class=""></path><path fill="#2d85cc" d="M280 456h184v40H280z" opacity="1" data-original="#2d85cc" class=""></path><path d="M32 208v97.665L17.728 323.69a8 8 0 0 0-1.619 6.282L32 425.319V448a8 8 0 0 0-8 8v40a8 8 0 0 0 8 8h184a8 8 0 0 0 8-8v-40a8 8 0 0 0-8-8v-23.343a8.029 8.029 0 0 0-.255-1.974l8.255-2.212V424a8 8 0 0 0 8 8h48v16a8 8 0 0 0-8 8v40a8 8 0 0 0 8 8h184a8 8 0 0 0 8-8v-40a8 8 0 0 0-8-8v-22.681l15.891-95.347a8 8 0 0 0-1.619-6.282l-14.415-18.2A7.988 7.988 0 0 0 464 304v-96a40.067 40.067 0 0 0-32-39.195V56a8 8 0 0 0-8-8H297.611l-9.129-34.071a8 8 0 0 0-9.8-5.657L31.407 74.53a8 8 0 0 0-5.657 9.8l24.192 90.287A40 40 0 0 0 32 208zm208 208v-47.419A56.112 56.112 0 0 1 287.419 416zm216 72H288v-24h168zm-24-224v-78.624A24.038 24.038 0 0 1 448 208v77.458l-16.09-20.321A8.037 8.037 0 0 0 432 264zm31.525 66.841-15.416 92.5a8.056 8.056 0 0 0-.109 1.315V448H296v-15.343h48a8 8 0 0 0 8-8v-16a56.063 56.063 0 0 1 56-56 8 8 0 0 0 7.6-10.5l-17.817-54.067-.009-.026-6.609-20.055a9.142 9.142 0 0 1 15.85-8.537zm-87.558-57.828 5.141 15.6A72 72 0 1 1 400 240v.031a25.084 25.084 0 0 0-24.032 32.982zM416 64v47.419A56.112 56.112 0 0 1 368.581 64zm-112.455 0h48.91A72.123 72.123 0 0 0 416 127.545V245.9c-.063-.053-.129-.1-.193-.155.124-1.914.193-3.836.193-5.748a87.991 87.991 0 1 0-29.3 65.57l10.511 31.894A72.118 72.118 0 0 0 336 408.657v8h-32.372A72.127 72.127 0 0 0 240 352.455v-224.91A72.123 72.123 0 0 0 303.545 64zm-16.126 0A56.112 56.112 0 0 1 240 111.419V64zM275.1 25.8l5.947 22.2h-46.228a56.126 56.126 0 0 1-5.509-9.933zM88.987 259.468a9.142 9.142 0 0 1 15.85 8.537L80.4 342.153a8 8 0 0 0 7.6 10.5 56.063 56.063 0 0 1 56 56v16a8 8 0 0 0 8 8h48V448H48v-23.343a8.056 8.056 0 0 0-.109-1.315l-15.416-92.5zm68.452 130.162a55.84 55.84 0 0 1 23.168 27.027H160v-8a71.8 71.8 0 0 0-2.561-19.027zm-9.919-21.419a72.105 72.105 0 0 0-48.727-30.747l13.115-39.8a88.633 88.633 0 0 0 43.575 23.551l15.611 58.263a72.077 72.077 0 0 0-23.574-11.267zm-29.858-88 2.371-7.2a25.064 25.064 0 0 0-17.99-32.294 72.018 72.018 0 0 1 17.652-53.06L150.682 303.3a72.474 72.474 0 0 1-33.02-23.092zM208 488H40v-24h168zm16-84.093-27.8 7.449-12.269-45.786A56.065 56.065 0 0 1 224 376.253zm0-174.171a8.034 8.034 0 0 1-1.736.709 8 8 0 0 1-9.8-5.656l-4.141-15.455a8 8 0 1 0-15.455 4.141l2.071 7.727-7.728 2.071a8 8 0 1 0 4.141 15.455l9.056-2.426A23.848 23.848 0 0 0 224 246.4v43.261a72.02 72.02 0 0 1-6.987-140.634 71.688 71.688 0 0 1 6.987-1.5zM213.718 42.245A72.242 72.242 0 0 0 224 60.318v71.028a88.83 88.83 0 0 0-11.128 2.229 88.006 88.006 0 0 0-31.706 154.114A88.91 88.91 0 0 0 224 305.8v51.613a72.067 72.067 0 0 0-44.248-7.437l-29.105-108.623-29.1-108.623a72.124 72.124 0 0 0 44.928-77.83zm-62.809 16.829a56.131 56.131 0 0 1-33.538 58.09L105.1 71.35zm-51.645 52.335 15.636 58.362a88.055 88.055 0 0 0-28.8 72.357c-.451.2-.9.391-1.344.614l-25.04-93.448a71.955 71.955 0 0 0 39.548-37.885zM43.275 87.915l45.8-12.273a56.114 56.114 0 0 1-33.53 58.076zM48 208a23.986 23.986 0 0 1 6.49-16.414L71.642 255.6 48 285.458z" fill="#000000" opacity="1" data-original="#000000" class=""></path><path d="M376 232h-9.376A24 24 0 0 0 320 240a8 8 0 0 1-16 0v-16a8 8 0 0 0-16 0v8h-8a8 8 0 0 0 0 16h9.376A24 24 0 0 0 336 240a8 8 0 0 1 16 0v16a8 8 0 0 0 16 0v-8h8a8 8 0 0 0 0-16z" fill="#000000" opacity="1" data-original="#000000" class=""></path></g></svg>