<svg xmlns="http://www.w3.org/2000/svg" version="1.1" xmlns:xlink="http://www.w3.org/1999/xlink" width="512" height="512" x="0" y="0" viewBox="0 0 464 464.16" style="enable-background:new 0 0 512 512" xml:space="preserve" class=""><g><path fill="#ff3314" d="M32.078 208h400v208c0 26.508-21.488 48-48 48h-304c-26.508 0-48-21.492-48-48zm0 0" opacity="1" data-original="#ff3314" class=""></path><path fill="#b21800" d="m220.8 264.16 28.24 57.121 63.038 9.2-45.68 44.48L277.2 437.84l-56.398-29.68-56.48 29.68 10.8-62.88-45.601-44.48 63.039-9.199zm0 0" opacity="1" data-original="#b21800" class=""></path><path fill="#b21800" d="M432.078 232v-24h-400v208c0 26.508 21.492 48 48 48h304c23.496.094 43.606-16.832 47.524-40H200.078c-70.691 0-128-57.309-128-128v-48c0-8.836 7.164-16 16-16zm0 0" opacity="1" data-original="#b21800" class=""></path><path fill="#ff3314" d="M32.078 144h400c17.676 0 32 14.328 32 32v32h-464v-32c0-17.672 14.328-32 32-32zm0 0" opacity="1" data-original="#ff3314" class=""></path><path fill="#ff7561" d="M432.078 144h-400c-17.672 0-32 14.328-32 32v16c0-17.672 14.328-32 32-32h400c17.676 0 32 14.328 32 32v-16c0-17.672-14.324-32-32-32zm0 0" opacity="1" data-original="#ff7561" class=""></path><path fill="#39b99b" d="M216.078 80h32c8.84 0 16 7.164 16 16v48h-64V96c0-8.836 7.164-16 16-16zm0 0" opacity="1" data-original="#39b99b"></path><path fill="#018667" d="M248.078 128c-17.672 0-32-14.328-32-32V80c-8.836 0-16 7.164-16 16v48h64v-16zm0 0" opacity="1" data-original="#018667" class=""></path><path fill="#39b99b" d="M120.078 0c-35.344 0-64 28.652-64 64 0 44.184 35.82 80 80 80h64V80c0-44.184-35.816-80-80-80zm32 96h-8c-22.09 0-40-17.91-40-40a8 8 0 0 1 8-8c22.094 0 40 17.91 40 40zm0 0" opacity="1" data-original="#39b99b"></path><path fill="#018667" d="M62.8 96H.079l40 48h96c-31.793-.016-60.558-18.86-73.277-48zm0 0" opacity="1" data-original="#018667" class=""></path><path fill="#003f2d" d="M62.8 96h-24c12.72 29.14 41.485 47.984 73.278 48h24c-31.793-.016-60.558-18.86-73.277-48zm0 0" opacity="1" data-original="#003f2d" class=""></path><path fill="#018667" d="m200.078 88.16-48 8h48zm0 0" opacity="1" data-original="#018667" class=""></path><path fill="#018667" d="M144.078 136c-44.18 0-80-35.816-80-80A63.373 63.373 0 0 1 79.04 14.96 64.014 64.014 0 0 0 56.08 64c0 44.184 35.82 80 80 80h64v-8zm0 0" opacity="1" data-original="#018667" class=""></path><path fill="#018667" d="M112.078 48c22.094 0 40 17.91 40 40v8l1.844-12.719A32.006 32.006 0 0 0 116.96 47.2zm0 0" opacity="1" data-original="#018667" class=""></path><path fill="#39b99b" d="M344.078 0c-44.18 0-80 35.816-80 80v64h64c44.184 0 80-35.816 80-80 0-35.348-28.652-64-64-64zm-24 96h-8v-8c0-22.09 17.91-40 40-40 4.422 0 8 3.582 8 8 0 22.09-17.906 40-40 40zm0 0" opacity="1" data-original="#39b99b"></path><path fill="#018667" d="M401.36 96h62.718l-40 48h-96c31.797-.016 60.563-18.86 73.281-48zm0 0" opacity="1" data-original="#018667" class=""></path><path fill="#003f2d" d="M400.078 98.879c-13.32 27.66-41.297 45.254-72 45.281h56zm0 0" opacity="1" data-original="#003f2d" class=""></path><path fill="#018667" d="M368.078 48c0-4.418-3.578-8-8-8a40.007 40.007 0 0 0-32 16 40.02 40.02 0 0 1 24-8c4.422 0 8 3.582 8 8a39.985 39.985 0 0 1-8 24 39.996 39.996 0 0 0 16-32zM279.602 96h32.636v-8h-16c-9.511-.043-17.199-7.77-17.199-17.281V48a63.95 63.95 0 0 1 2.563-18 79.994 79.994 0 0 0-17.524 50v16zM352.078 128h-43.117a54.019 54.019 0 0 1-44.883-24v40h64a80.015 80.015 0 0 0 59.684-26.879A63.544 63.544 0 0 1 352.078 128zm0 0" opacity="1" data-original="#018667" class=""></path><path fill="#39b99b" d="M176.078 144.16h112v64h-112zm0 0" opacity="1" data-original="#39b99b"></path><path fill="#018667" d="M248.078 160.16h-72v48h112v-48zm0 0" opacity="1" data-original="#018667" class=""></path><path fill="#f8e19f" d="m232.078 250.48 28.242 57.2 63.04 9.12-45.598 44.481 10.797 62.88-56.48-29.68-56.4 29.68 10.801-62.88-45.68-44.48 63.122-9.121zm0 0" opacity="1" data-original="#f8e19f"></path><path fill="#018667" d="m203.922 307.68 28.156-57.2 28.242 57.2 3.758.48v-100h-64v100zM232.078 394.48l-32 16.801v52.88h64v-52.88zm0 0" opacity="1" data-original="#018667" class=""></path><path fill="#003f2d" d="M200.078 411.281v7.758l20.723-10.879 43.277 22.719V411.28l-32-16.8zm0 0" opacity="1" data-original="#003f2d" class=""></path><path fill="#003f2d" d="M200.078 424.16h64v40h-64zM200.078 208.16h64v24h-64zm0 0" opacity="1" data-original="#003f2d" class=""></path><g fill="#f8e19f"><path d="m96.078 368.16 10.402 21.04 23.282 3.359-16.883 16.402 4 23.2-20.8-10.962L75.28 432.16l4-23.2-16.8-16.401 23.199-3.36zM371.2 241.602l1.84 23.437 20.32 11.762-21.758 8.96-4.883 22.958-15.278-17.84-23.363 2.402 12.32-20-9.52-21.52 22.884 5.52zM397.441 377.52l-9.921 21.28 11.921 20.24-23.363-2.88-15.598 17.52-4.48-23.04-21.52-9.359 20.56-11.441 2.32-23.36 17.199 16.079zM83.68 235.36l18.558 14.402 22.32-7.121-7.917 22.078 13.68 19.12-23.442-.718L92.96 302l-6.563-22.559-22.32-7.363 19.442-13.2zm0 0" fill="#f8e19f" opacity="1" data-original="#f8e19f"></path></g><path fill="#d5ad56" d="m62.48 392.559 16.801 16-4 23.203L96.078 420.8l20.8 11.199-4-23.2 10.724-10.402a111.01 111.01 0 0 1-10.082-8l-7.04-1.039-6.878-13.918a148.96 148.96 0 0 1-4.243-5.68l-9.68 19.598zM368.96 424.16h-10.32l1.84 9.52zM72.078 274.719v-8.078l-8 5.437zm0 0" opacity="1" data-original="#d5ad56"></path></g></svg>