<svg xmlns="http://www.w3.org/2000/svg" version="1.1" xmlns:xlink="http://www.w3.org/1999/xlink" width="512" height="512" x="0" y="0" viewBox="0 0 682.667 682.667" style="enable-background:new 0 0 512 512" xml:space="preserve" class=""><g><defs><clipPath id="a" clipPathUnits="userSpaceOnUse"><path d="M0 512h512V0H0Z" fill="#000000" opacity="1" data-original="#000000"></path></clipPath></defs><g clip-path="url(#a)" transform="matrix(1.33333 0 0 -1.33333 0 682.667)"><path d="M0 0v-96.492h-101.643V0h33.372v-35.308c0-9.637 7.812-17.45 17.45-17.45 9.637 0 17.45 7.813 17.45 17.45V0z" style="fill-opacity:1;fill-rule:nonzero;stroke:none" transform="translate(267.426 188.506)" fill="#3351c5" data-original="#3351c5"></path><path d="M0 0h-33.371v-45.369H3.208A17.35 17.35 0 0 0 0-35.308Z" style="fill-opacity:1;fill-rule:nonzero;stroke:none" transform="translate(199.154 188.506)" fill="#2944ae" data-original="#2944ae"></path><path d="M0 0v-35.308a17.35 17.35 0 0 0-3.208-10.061H0v-51.123h33.371V0Z" style="fill-opacity:1;fill-rule:nonzero;stroke:none" transform="translate(234.055 188.506)" fill="#2944ae" data-original="#2944ae"></path><path d="M0 0v-96.492h-101.643V0h33.372v-35.308c0-9.637 7.812-17.45 17.45-17.45 9.637 0 17.45 7.813 17.45 17.45V0z" style="stroke-width:15;stroke-linecap:round;stroke-linejoin:round;stroke-miterlimit:10;stroke-dasharray:none;stroke-opacity:1" transform="translate(267.426 188.506)" fill="none" stroke="#000000" stroke-width="15" stroke-linecap="round" stroke-linejoin="round" stroke-miterlimit="10" stroke-dasharray="none" stroke-opacity="" data-original="#000000" class=""></path><path d="M0 0h-392.715c-7.04 0-12.747 5.707-12.747 12.747v248.081c0 7.04 5.707 12.747 12.747 12.747H0c7.04 0 12.747-5.707 12.747-12.747V12.747C12.747 5.707 7.04 0 0 0" style="fill-opacity:1;fill-rule:nonzero;stroke:none" transform="translate(412.962 173.318)" fill="#d5dbf3" data-original="#d5dbf3" class=""></path><path d="M0 0v-248.077c0-7.049-5.71-12.746-12.746-12.746h-37.313c7.037 0 12.746 5.697 12.746 12.746V0c0 7.036-5.709 12.746-12.746 12.746h37.313C-5.707 12.746 0 7.039 0 0" style="fill-opacity:1;fill-rule:nonzero;stroke:none" transform="translate(425.708 434.148)" fill="#bec7ec" data-original="#bec7ec"></path><path d="M0 0v-36.966c0-7.049-5.71-12.746-12.746-12.746h-392.713c-7.037 0-12.748 5.697-12.748 12.746V0Z" style="fill-opacity:1;fill-rule:nonzero;stroke:none" transform="translate(425.708 223.037)" fill="#5169cd" data-original="#5169cd" class=""></path><path d="M0 0v-36.966c0-7.049-5.71-12.746-12.746-12.746h-37.313c7.037 0 12.746 5.697 12.746 12.746V0Z" style="fill-opacity:1;fill-rule:nonzero;stroke:none" transform="translate(425.708 223.037)" fill="#3351c5" data-original="#3351c5"></path><path d="M0 0h418.209" style="stroke-width:15;stroke-linecap:round;stroke-linejoin:round;stroke-miterlimit:10;stroke-dasharray:none;stroke-opacity:1" transform="translate(7.5 223.032)" fill="none" stroke="#000000" stroke-width="15" stroke-linecap="round" stroke-linejoin="round" stroke-miterlimit="10" stroke-dasharray="none" stroke-opacity="" data-original="#000000" class=""></path><path d="M0 0h309.464c7.04 0 12.747 5.707 12.747 12.747v248.081c0 7.04-5.707 12.747-12.747 12.747h-84.766" style="stroke-width:15;stroke-linecap:round;stroke-linejoin:round;stroke-miterlimit:10;stroke-dasharray:none;stroke-opacity:1" transform="translate(103.498 173.318)" fill="none" stroke="#000000" stroke-width="15" stroke-linecap="round" stroke-linejoin="round" stroke-miterlimit="10" stroke-dasharray="none" stroke-opacity="" data-original="#000000" class=""></path><path d="M0 0h-272.908c-7.039 0-12.746-5.707-12.746-12.747v-248.081c0-7.04 5.707-12.747 12.746-12.747h48.21" style="stroke-width:15;stroke-linecap:round;stroke-linejoin:round;stroke-miterlimit:10;stroke-dasharray:none;stroke-opacity:1" transform="translate(293.154 446.894)" fill="none" stroke="#000000" stroke-width="15" stroke-linecap="round" stroke-linejoin="round" stroke-miterlimit="10" stroke-dasharray="none" stroke-opacity="" data-original="#000000" class=""></path><path d="M0 0h-140.667c-8.676 0-15.71 7.034-15.71 15.711s7.034 15.711 15.71 15.711H0c8.678 0 15.711-7.034 15.711-15.711S8.678 0 0 0" style="fill-opacity:1;fill-rule:nonzero;stroke:none" transform="translate(286.938 65.108)" fill="#bec7ec" data-original="#bec7ec"></path><path d="M0 0c0-4.334-1.759-8.272-4.602-11.115a15.651 15.651 0 0 0-11.102-4.602h-34.709a15.66 15.66 0 0 1 11.115 4.602A15.684 15.684 0 0 1-34.696 0c0 8.681-7.036 15.704-15.717 15.704h34.709C-7.036 15.704 0 8.681 0 0" style="fill-opacity:1;fill-rule:nonzero;stroke:none" transform="translate(302.644 80.822)" fill="#a3afe4" data-original="#a3afe4"></path><path d="M0 0h-140.667c-8.676 0-15.71 7.034-15.71 15.711s7.034 15.711 15.71 15.711H0c8.678 0 15.711-7.034 15.711-15.711S8.678 0 0 0Z" style="stroke-width:15;stroke-linecap:round;stroke-linejoin:round;stroke-miterlimit:10;stroke-dasharray:none;stroke-opacity:1" transform="translate(286.938 65.108)" fill="none" stroke="#000000" stroke-width="15" stroke-linecap="round" stroke-linejoin="round" stroke-miterlimit="10" stroke-dasharray="none" stroke-opacity="" data-original="#000000" class=""></path><path d="M0 0v-174.729" style="stroke-width:15;stroke-linecap:round;stroke-linejoin:round;stroke-miterlimit:10;stroke-dasharray:none;stroke-opacity:1" transform="translate(64.7 397.762)" fill="none" stroke="#000000" stroke-width="15" stroke-linecap="round" stroke-linejoin="round" stroke-miterlimit="10" stroke-dasharray="none" stroke-opacity="" data-original="#000000" class=""></path><path d="m0 0 33.361 16.278 32.57 35.887 38.82 8.492 52.771 61.869 52.772-31.541 40.206 23.657V-39.46H0z" style="fill-opacity:1;fill-rule:nonzero;stroke:none" transform="translate(64.7 262.497)" fill="#26d192" data-original="#26d192" class=""></path><path d="M0 0v39.46l33.361 16.278V0Z" style="fill-opacity:1;fill-rule:nonzero;stroke:none" transform="translate(64.7 223.037)" fill="#fb4a59" data-original="#fb4a59"></path><path d="M0 0v-91.625h38.82V8.492Z" style="fill-opacity:1;fill-rule:nonzero;stroke:none" transform="translate(130.631 314.662)" fill="#fb4a59" data-original="#fb4a59"></path><path d="M0 0v161.986l52.772-31.541V0Z" style="fill-opacity:1;fill-rule:nonzero;stroke:none" transform="translate(222.223 223.037)" fill="#fb4a59" data-original="#fb4a59"></path><path d="m0 0 33.361 16.278 32.57 35.887 38.82 8.492 52.771 61.869 52.772-31.541 40.206 23.657V-39.46H0z" style="stroke-width:15;stroke-linecap:round;stroke-linejoin:round;stroke-miterlimit:10;stroke-dasharray:none;stroke-opacity:1" transform="translate(64.7 262.497)" fill="none" stroke="#000000" stroke-width="15" stroke-linecap="round" stroke-linejoin="round" stroke-miterlimit="10" stroke-dasharray="none" stroke-opacity="" data-original="#000000" class=""></path><path d="M0 0v-55.738" style="stroke-width:15;stroke-linecap:round;stroke-linejoin:round;stroke-miterlimit:10;stroke-dasharray:none;stroke-opacity:1" transform="translate(98.062 278.775)" fill="none" stroke="#000000" stroke-width="15" stroke-linecap="round" stroke-linejoin="round" stroke-miterlimit="10" stroke-dasharray="none" stroke-opacity="" data-original="#000000" class=""></path><path d="M0 0v-91.625" style="stroke-width:15;stroke-linecap:round;stroke-linejoin:round;stroke-miterlimit:10;stroke-dasharray:none;stroke-opacity:1" transform="translate(130.631 314.662)" fill="none" stroke="#000000" stroke-width="15" stroke-linecap="round" stroke-linejoin="round" stroke-miterlimit="10" stroke-dasharray="none" stroke-opacity="" data-original="#000000" class=""></path><path d="M0 0v-100.117" style="stroke-width:15;stroke-linecap:round;stroke-linejoin:round;stroke-miterlimit:10;stroke-dasharray:none;stroke-opacity:1" transform="translate(169.452 323.154)" fill="none" stroke="#000000" stroke-width="15" stroke-linecap="round" stroke-linejoin="round" stroke-miterlimit="10" stroke-dasharray="none" stroke-opacity="" data-original="#000000" class=""></path><path d="M0 0v-159.527" style="stroke-width:15;stroke-linecap:round;stroke-linejoin:round;stroke-miterlimit:10;stroke-dasharray:none;stroke-opacity:1" transform="translate(222.223 385.023)" fill="none" stroke="#000000" stroke-width="15" stroke-linecap="round" stroke-linejoin="round" stroke-miterlimit="10" stroke-dasharray="none" stroke-opacity="" data-original="#000000" class=""></path><path d="M0 0v-127.986" style="stroke-width:15;stroke-linecap:round;stroke-linejoin:round;stroke-miterlimit:10;stroke-dasharray:none;stroke-opacity:1" transform="translate(274.995 353.482)" fill="none" stroke="#000000" stroke-width="15" stroke-linecap="round" stroke-linejoin="round" stroke-miterlimit="10" stroke-dasharray="none" stroke-opacity="" data-original="#000000" class=""></path><path d="M0 0v-82.157" style="stroke-width:15;stroke-linecap:round;stroke-linejoin:round;stroke-miterlimit:10;stroke-dasharray:none;stroke-opacity:1" transform="translate(375.65 406.254)" fill="none" stroke="#000000" stroke-width="15" stroke-linecap="round" stroke-linejoin="round" stroke-miterlimit="10" stroke-dasharray="none" stroke-opacity="" data-original="#000000" class=""></path><path d="M0 0h20.703" style="stroke-width:15;stroke-linecap:round;stroke-linejoin:round;stroke-miterlimit:10;stroke-dasharray:none;stroke-opacity:1" transform="translate(155.432 388.21)" fill="none" stroke="#000000" stroke-width="15" stroke-linecap="round" stroke-linejoin="round" stroke-miterlimit="10" stroke-dasharray="none" stroke-opacity="" data-original="#000000" class=""></path><path d="M0 0v-20.702" style="stroke-width:15;stroke-linecap:round;stroke-linejoin:round;stroke-miterlimit:10;stroke-dasharray:none;stroke-opacity:1" transform="translate(165.783 398.562)" fill="none" stroke="#000000" stroke-width="15" stroke-linecap="round" stroke-linejoin="round" stroke-miterlimit="10" stroke-dasharray="none" stroke-opacity="" data-original="#000000" class=""></path><path d="M0 0h-128.393c-8.633 0-15.632 6.999-15.632 15.633v227.721c0 8.635 6.999 15.634 15.632 15.634H0c8.634 0 15.633-6.999 15.633-15.634V15.633C15.633 6.999 8.634 0 0 0" style="fill-opacity:1;fill-rule:nonzero;stroke:none" transform="translate(488.867 65.108)" fill="#a3afe4" data-original="#a3afe4"></path><path d="M0 0v-227.722c0-8.633-6.999-15.632-15.634-15.632h-30.77c8.634 0 15.633 6.999 15.633 15.632V0c0 8.635-6.999 15.634-15.633 15.634h30.77C-6.999 15.634 0 8.635 0 0" style="fill-opacity:1;fill-rule:nonzero;stroke:none" transform="translate(504.499 308.463)" fill="#8897dc" data-original="#8897dc"></path><path d="M0 0v140.612c0 8.635-6.999 15.634-15.633 15.634h-128.392c-8.634 0-15.633-6.999-15.633-15.634V0z" style="fill-opacity:1;fill-rule:nonzero;stroke:none" transform="translate(504.5 167.85)" fill="#23f1a8" data-original="#23f1a8"></path><path d="M0 0v-140.612h30.771V0c0 8.635-6.999 15.634-15.633 15.634h-30.771C-6.998 15.634 0 8.635 0 0" style="fill-opacity:1;fill-rule:nonzero;stroke:none" transform="translate(473.728 308.463)" fill="#26d192" data-original="#26d192" class=""></path><path d="m0 0 6.727 21.919h-79.32L-65.866 0a9.998 9.998 0 0 1 9.559-7.065h46.746A10 10 0 0 1 0 0" style="fill-opacity:1;fill-rule:nonzero;stroke:none" transform="translate(457.604 302.178)" fill="#6d81d5" data-original="#6d81d5"></path><path d="m0 0-6.73-21.92a9.99 9.99 0 0 0-9.56-7.069h-23.99c4.389 0 8.27 2.87 9.56 7.069L-23.99 0Z" style="fill-opacity:1;fill-rule:nonzero;stroke:none" transform="translate(464.33 324.1)" fill="#5169cd" data-original="#5169cd" class=""></path><path d="m0 0 6.727-21.919a9.998 9.998 0 0 1 9.559-7.065h46.746a10 10 0 0 1 9.561 7.065L79.319 0" style="stroke-width:15;stroke-linecap:round;stroke-linejoin:round;stroke-miterlimit:10;stroke-dasharray:none;stroke-opacity:1" transform="translate(385.012 324.097)" fill="none" stroke="#000000" stroke-width="15" stroke-linecap="round" stroke-linejoin="round" stroke-miterlimit="10" stroke-dasharray="none" stroke-opacity="" data-original="#000000" class=""></path><path d="M0 0v-163.91c0-8.635 6.999-15.634 15.633-15.634h128.392c8.634 0 15.633 6.999 15.633 15.634V63.811c0 8.634-6.999 15.633-15.633 15.633H15.633C6.999 79.444 0 72.445 0 63.811v-28.77" style="stroke-width:15;stroke-linecap:round;stroke-linejoin:round;stroke-miterlimit:10;stroke-dasharray:none;stroke-opacity:1" transform="translate(344.842 244.652)" fill="none" stroke="#000000" stroke-width="15" stroke-linecap="round" stroke-linejoin="round" stroke-miterlimit="10" stroke-dasharray="none" stroke-opacity="" data-original="#000000" class=""></path><path d="M0 0h159.658" style="stroke-width:15;stroke-linecap:round;stroke-linejoin:round;stroke-miterlimit:10;stroke-dasharray:none;stroke-opacity:1" transform="translate(344.842 167.85)" fill="none" stroke="#000000" stroke-width="15" stroke-linecap="round" stroke-linejoin="round" stroke-miterlimit="10" stroke-dasharray="none" stroke-opacity="" data-original="#000000" class=""></path><path d="M0 0c0-8.049 8.37-14.572 18.695-14.572 10.326 0 18.696 6.523 18.696 14.572 0 19.04-33.717 10.566-33.717 26.282 0 6.467 6.725 11.709 15.021 11.709 5.186 0 9.757-2.048 12.456-5.162" style="stroke-width:15;stroke-linecap:round;stroke-linejoin:round;stroke-miterlimit:10;stroke-dasharray:none;stroke-opacity:1" transform="translate(405.976 221.629)" fill="none" stroke="#000000" stroke-width="15" stroke-linecap="round" stroke-linejoin="round" stroke-miterlimit="10" stroke-dasharray="none" stroke-opacity="" data-original="#000000" class=""></path><path d="M0 0v8.875" style="stroke-width:15;stroke-linecap:round;stroke-linejoin:round;stroke-miterlimit:10;stroke-dasharray:none;stroke-opacity:1" transform="translate(424.67 259.62)" fill="none" stroke="#000000" stroke-width="15" stroke-linecap="round" stroke-linejoin="round" stroke-miterlimit="10" stroke-dasharray="none" stroke-opacity="" data-original="#000000" class=""></path><path d="M0 0v8.876" style="stroke-width:15;stroke-linecap:round;stroke-linejoin:round;stroke-miterlimit:10;stroke-dasharray:none;stroke-opacity:1" transform="translate(424.67 198.18)" fill="none" stroke="#000000" stroke-width="15" stroke-linecap="round" stroke-linejoin="round" stroke-miterlimit="10" stroke-dasharray="none" stroke-opacity="" data-original="#000000" class=""></path><path d="m0 0 .104-.001" style="stroke-width:15;stroke-linecap:round;stroke-linejoin:round;stroke-miterlimit:10;stroke-dasharray:none;stroke-opacity:1" transform="translate(371.457 278.684)" fill="none" stroke="#000000" stroke-width="15" stroke-linecap="round" stroke-linejoin="round" stroke-miterlimit="10" stroke-dasharray="none" stroke-opacity="" data-original="#000000" class=""></path><path d="M0 0h42.3" style="stroke-width:15;stroke-linecap:round;stroke-linejoin:round;stroke-miterlimit:10;stroke-dasharray:none;stroke-opacity:1" transform="translate(375.65 133.227)" fill="none" stroke="#000000" stroke-width="15" stroke-linecap="round" stroke-linejoin="round" stroke-miterlimit="10" stroke-dasharray="none" stroke-opacity="" data-original="#000000" class=""></path><path d="M0 0h100.287" style="stroke-width:15;stroke-linecap:round;stroke-linejoin:round;stroke-miterlimit:10;stroke-dasharray:none;stroke-opacity:1" transform="translate(375.65 107.133)" fill="none" stroke="#000000" stroke-width="15" stroke-linecap="round" stroke-linejoin="round" stroke-miterlimit="10" stroke-dasharray="none" stroke-opacity="" data-original="#000000" class=""></path></g></g></svg>