<svg xmlns="http://www.w3.org/2000/svg" version="1.1" xmlns:xlink="http://www.w3.org/1999/xlink" width="512" height="512" x="0" y="0" viewBox="0 0 64 64" style="enable-background:new 0 0 512 512" xml:space="preserve" class=""><g><path fill="#aa644a" d="M6 13h47a3 3 0 0 1 3 3v7H6a5 5 0 0 1-5-5 5 5 0 0 1 5-5z" opacity="1" data-original="#aa644a" class=""></path><path fill="#5adc5a" d="M21.054 51.922 6.006 10.562 32.326.986l15.048 41.36z" opacity="1" data-original="#5adc5a" class=""></path><path fill="#85fa8b" d="m23.44 46.8 18.793-6.84L31.289 9.886A4 4 0 0 1 26.162 7.5l-11.276 4.1a4 4 0 0 1-2.386 5.126z" opacity="1" data-original="#85fa8b" class=""></path><path fill="#6beb71" d="m32.693 51.918-15.048-41.36L43.965.982l15.048 41.36z" opacity="1" data-original="#6beb71" class=""></path><path fill="#85fa8b" d="m35.079 46.8 18.794-6.84L42.929 9.886A4 4 0 0 1 37.8 7.5l-11.275 4.1a4 4 0 0 1-2.39 5.127z" opacity="1" data-original="#85fa8b" class=""></path><rect width="7" height="3" x="31.229" y="15.095" fill="#6beb71" rx="1.5" transform="rotate(70 34.717 16.587)" opacity="1" data-original="#6beb71" class=""></rect><path fill="#ba745a" d="M6 23h50a3 3 0 0 1 3 3v34a3 3 0 0 1-3 3H5a4 4 0 0 1-4-4V18a5 5 0 0 0 5 5z" opacity="1" data-original="#ba745a" class=""></path><path fill="#91888e" d="M52 37h9a2 2 0 0 1 2 2v8a2 2 0 0 1-2 2h-9a6 6 0 0 1-6-6 6 6 0 0 1 6-6z" opacity="1" data-original="#91888e"></path><path fill="#81787e" d="M48 45a5.968 5.968 0 0 0 .881 3.119A5.968 5.968 0 0 0 52 49h9a2 2 0 0 0 2-2v-8h-9a6 6 0 0 0-6 6z" opacity="1" data-original="#81787e"></path><circle cx="52" cy="43" r="2" fill="#f2fbff" opacity="1" data-original="#f2fbff"></circle><path fill="#f2fbff" d="M5 51h14v4H5z" opacity="1" data-original="#f2fbff"></path><path d="M5 58.25H4a.75.75 0 0 0 0 1.5h1a.75.75 0 0 0 0-1.5zM50.23 58.25h-1.884a.75.75 0 0 0 0 1.5h1.884a.75.75 0 0 0 0-1.5zM21.961 58.25h-1.884a.75.75 0 1 0 0 1.5h1.884a.75.75 0 0 0 0-1.5zM16.308 58.25h-1.885a.75.75 0 0 0 0 1.5h1.885a.75.75 0 0 0 0-1.5zM10.654 58.25H8.769a.75.75 0 0 0 0 1.5h1.885a.75.75 0 0 0 0-1.5zM33.27 58.25h-1.885a.75.75 0 0 0 0 1.5h1.885a.75.75 0 1 0 0-1.5zM27.615 58.25H25.73a.75.75 0 0 0 0 1.5h1.885a.75.75 0 0 0 0-1.5zM38.923 58.25h-1.885a.75.75 0 0 0 0 1.5h1.885a.75.75 0 0 0 0-1.5zM44.577 58.25h-1.885a.75.75 0 0 0 0 1.5h1.885a.75.75 0 0 0 0-1.5zM54 59.75h1a.75.75 0 0 0 .75-.75v-1a.75.75 0 0 0-1.5 0v.25H54a.75.75 0 0 0 0 1.5zM55 54.464a.75.75 0 0 0 .75-.75v-2.143a.75.75 0 0 0-1.5 0v2.143a.75.75 0 0 0 .75.75zM55 31.536a.75.75 0 0 0-.75.75v2.143a.75.75 0 0 0 1.5 0v-2.143a.75.75 0 0 0-.75-.75zM54 27.75h.25V28a.75.75 0 0 0 1.5 0v-1a.75.75 0 0 0-.75-.75h-1a.75.75 0 0 0 0 1.5zM47.719 27.75h2.093a.75.75 0 0 0 0-1.5h-2.093a.75.75 0 1 0 0 1.5zM44.281 27a.75.75 0 0 0-.75-.75h-2.094a.75.75 0 0 0 0 1.5h2.094a.75.75 0 0 0 .75-.75zM16.313 27.75h2.094a.75.75 0 0 0 0-1.5h-2.094a.75.75 0 1 0 0 1.5zM31.719 27a.75.75 0 0 0-.75-.75h-2.093a.75.75 0 0 0 0 1.5h2.093a.75.75 0 0 0 .75-.75zM38 27a.75.75 0 0 0-.75-.75h-2.094a.75.75 0 0 0 0 1.5h2.094A.75.75 0 0 0 38 27zM25.438 27a.75.75 0 0 0-.75-.75H22.6a.75.75 0 0 0 0 1.5h2.093a.75.75 0 0 0 .745-.75zM10.032 27.75h2.094a.75.75 0 0 0 0-1.5h-2.094a.75.75 0 1 0 0 1.5zM4.845 27.75h1a.75.75 0 0 0 0-1.5h-1a.75.75 0 1 0 0 1.5z" fill="#000000" opacity="1" data-original="#000000" class=""></path><path d="M61 36.25h-1.25V26a3.756 3.756 0 0 0-3-3.674V16A3.755 3.755 0 0 0 53 12.25h-4.156L44.656.744A.75.75 0 0 0 43.7.3l-9.579 3.48L33.016.744A.75.75 0 0 0 32.055.3L5.744 9.872a.751.751 0 0 0-.449.961l.52 1.426A5.754 5.754 0 0 0 .25 18v41A4.756 4.756 0 0 0 5 63.75h51A3.755 3.755 0 0 0 59.75 60V49.75H61A2.752 2.752 0 0 0 63.75 47v-8A2.752 2.752 0 0 0 61 36.25zm-8-22.5A2.253 2.253 0 0 1 55.25 16v6.25h-2.767l-3.093-8.5zM43.5 1.961l7.387 20.289h-2.66L43.633 9.629a.749.749 0 0 0-.961-.448 3.254 3.254 0 0 1-4.166-1.943.75.75 0 0 0-.961-.448l-11.276 4.1a.752.752 0 0 0-.449.962 3.253 3.253 0 0 1-1.942 4.165.751.751 0 0 0-.448.962l1.917 5.267h-2.66L18.6 11.025zM27.431 12.068l9.978-3.632a4.76 4.76 0 0 0 5.051 2.355l4.17 11.459H26.943l-1.867-5.131a4.763 4.763 0 0 0 2.355-5.051zm-11.64 0 1.407-.512L21.09 22.25H15.3l-1.868-5.131a4.76 4.76 0 0 0 2.359-5.051zM31.863 1.961l.849 2.332-18.083 6.6a.751.751 0 0 0-.448.962 3.253 3.253 0 0 1-1.942 4.165.751.751 0 0 0-.449.962l1.918 5.267h-2.661L6.961 11.025zM6 13.75h.357l3.094 8.5H6a4.25 4.25 0 0 1 0-8.5zM58.25 60A2.253 2.253 0 0 1 56 62.25H5A3.254 3.254 0 0 1 1.75 59V21.869A5.736 5.736 0 0 0 6 23.75h50A2.253 2.253 0 0 1 58.25 26v10.25H52a6.75 6.75 0 0 0 0 13.5h6.25zm4-13A1.252 1.252 0 0 1 61 48.25h-9a5.25 5.25 0 0 1 0-10.5h9A1.252 1.252 0 0 1 62.25 39z" fill="#000000" opacity="1" data-original="#000000" class=""></path><path d="M52 40.25A2.75 2.75 0 1 0 54.75 43 2.752 2.752 0 0 0 52 40.25zm0 4A1.25 1.25 0 1 1 53.25 43 1.252 1.252 0 0 1 52 44.25zM19.75 55v-4a.75.75 0 0 0-.75-.75H5a.75.75 0 0 0-.75.75v4a.75.75 0 0 0 .75.75h14a.75.75 0 0 0 .75-.75zm-1.5-.75H5.75v-2.5h12.5zM11.469 13.907a1 1 0 1 0-1.282-.6 1 1 0 0 0 1.282.6zM33.3 19.244a2.25 2.25 0 1 0 4.227-1.544l-1.368-3.759a2.25 2.25 0 0 0-4.229 1.539zm.49-5.233a.75.75 0 0 1 .961.448l1.368 3.759a.75.75 0 1 1-1.409.513l-1.37-3.759a.75.75 0 0 1 .448-.961zM21.827 13.309a1 1 0 1 0 .6-1.281 1 1 0 0 0-.6 1.281zM41.9 7.067a1 1 0 1 0-1.282-.6 1 1 0 0 0 1.282.6z" fill="#000000" opacity="1" data-original="#000000" class=""></path></g></svg>